<svg width="194" height="213" viewBox="0 0 194 213" fill="none" xmlns="http://www.w3.org/2000/svg">
<path fill-rule="evenodd" clip-rule="evenodd" d="M104.673 0.722307C125.514 -1.82349 148.153 2.65404 164.516 15.6852C180.384 28.3223 185.207 49.6031 190.499 69.0729C195.092 85.9721 194.286 102.998 192.991 120.452C191.6 139.211 192.885 158.931 182.657 174.783C171.741 191.702 154.701 205.362 135.039 210.271C115.656 215.111 95.2138 209.336 77.0093 201.16C60.4086 193.704 48.8235 179.674 36.7687 166.135C24.6088 152.479 11.731 139.293 6.40545 121.868C0.53672 102.665 -3.90815 80.8223 5.22112 62.9114C14.2893 45.1203 36.6051 39.8725 53.6228 29.231C70.4826 18.6883 84.8824 3.1398 104.673 0.722307Z" fill="#FF5C00"/>
</svg>
