<svg width="212" height="213" viewBox="0 0 212 213" fill="none" xmlns="http://www.w3.org/2000/svg">
<path fill-rule="evenodd" clip-rule="evenodd" d="M115.107 0.0412043C134.967 -0.0844988 155.201 5.31779 170.74 17.6084C185.608 29.3676 191.127 48.3912 198.329 65.8652C205.25 82.6554 212.992 99.3513 211.895 117.463C210.743 136.481 203.04 154.271 192.03 169.87C180.141 186.713 166.491 204.521 146.548 210.042C126.673 215.543 104.942 208.974 86.9405 198.957C70.8919 190.028 65.8634 170.078 52.3806 157.645C36.4884 142.991 7.39843 140.555 1.21085 119.907C-4.83998 99.715 13.2156 80.4542 23.774 62.1847C33.4429 45.4544 43.9071 29.2096 59.9265 18.3098C76.254 7.20038 95.3189 0.166449 115.107 0.0412043Z" fill="#F26DF8"/>
</svg>
