<svg width="192" height="213" viewBox="0 0 192 213" fill="none" xmlns="http://www.w3.org/2000/svg">
<path fill-rule="evenodd" clip-rule="evenodd" d="M96.8239 3.47272C77.8878 2.69827 58.0406 -4.13247 40.9378 3.94467C23.5806 12.142 11.719 29.3497 4.60443 47.0253C-2.07977 63.6317 -0.251266 82.0082 2.39992 99.6888C4.78156 115.572 13.0844 129.152 19.1523 144.045C26.2509 161.467 26.8947 182.62 41.2153 194.957C56.0248 207.716 77.5933 214.901 96.8239 210.959C115.792 207.07 124.309 185.044 140.547 174.596C155.63 164.891 179.458 167.429 188.442 152.009C197.427 136.587 186.885 117.288 184.19 99.6888C181.874 84.5631 179.065 70.1346 173.706 55.7839C167.432 38.9834 165.022 18.5598 150.104 8.40936C135.153 -1.76347 114.955 4.21426 96.8239 3.47272Z" fill="#FF5C00"/>
</svg>
