<svg width="214" height="213" viewBox="0 0 214 213" fill="none" xmlns="http://www.w3.org/2000/svg">
<path fill-rule="evenodd" clip-rule="evenodd" d="M103.399 0.173394C123.27 -1.07196 142.701 6.47107 159.294 17.4236C175.734 28.2757 187.301 44.306 196.541 61.6542C206.248 79.8794 215.413 99.2276 213.818 119.794C212.173 141.007 202.182 161.055 187.625 176.634C173.349 191.912 153.621 200.184 133.438 205.818C113.448 211.397 92.2883 214.986 72.489 208.771C52.8767 202.614 35.6462 189.157 24.858 171.731C14.8264 155.527 19.1793 135.244 15.4169 116.583C11.3648 96.4853 -5.62403 76.937 1.8983 57.8547C9.39732 38.8316 34.0222 34.2896 51.8517 24.1573C68.6636 14.6034 84.078 1.38429 103.399 0.173394Z" fill="#FF5C00"/>
</svg>
