<svg width="218" height="213" viewBox="0 0 218 213" fill="none" xmlns="http://www.w3.org/2000/svg">
<path fill-rule="evenodd" clip-rule="evenodd" d="M116.604 5.20763C136.236 5.86745 157.34 -1.17574 174.439 8.4665C191.559 18.1205 199.28 38.2598 207.118 56.2481C214.33 72.8015 218.434 90.318 217.963 108.36C217.501 126.102 212.603 143.16 204.439 158.93C196.004 175.222 185.84 191.283 170.115 200.785C154.256 210.368 135.144 212.338 116.604 212.005C98.2824 211.676 80.2759 207.642 64.1945 198.882C47.8833 189.997 34.8311 176.751 24.1012 161.617C12.6314 145.44 -0.472704 128.166 0.0131137 108.36C0.497094 88.629 17.2447 73.938 26.6774 56.5864C36.3955 38.71 38.7799 14.6107 56.4729 4.50187C74.1669 -5.60748 96.2229 4.52267 116.604 5.20763Z" fill="#4B3BFF"/>
</svg>
