<svg width="220" height="213" viewBox="0 0 220 213" fill="none" xmlns="http://www.w3.org/2000/svg">
<path fill-rule="evenodd" clip-rule="evenodd" d="M110.148 0.088874C128.503 -0.939019 143.157 14.2529 158.678 24.0036C173.602 33.3795 189.039 42.0223 199.428 56.1765C210.469 71.2192 221.894 88.7184 219.735 107.188C217.592 125.522 197.349 135.701 188.248 151.811C178.977 168.221 180.866 191.136 165.822 202.617C150.682 214.171 129.251 212.175 110.148 211.413C91.5893 210.672 72.3573 208.626 57.0088 198.274C42.0632 188.194 36.0124 170.204 26.4889 154.988C16.6524 139.271 -0.146035 125.674 0.000958274 107.188C0.147918 88.7054 15.3896 74.101 27.2456 59.82C37.6927 47.2358 51.3849 38.8529 64.6896 29.267C79.5439 18.5646 91.8037 1.1162 110.148 0.088874Z" fill="#00FF29"/>
</svg>
