<svg width="216" height="213" viewBox="0 0 216 213" fill="none" xmlns="http://www.w3.org/2000/svg">
<path fill-rule="evenodd" clip-rule="evenodd" d="M105.521 0.905209C125.544 2.26756 144.863 8.61321 161.261 20.1383C177.207 31.3458 187.578 47.867 196.75 65.0247C206.443 83.1582 217.256 101.823 215.881 122.321C214.462 143.479 203.408 162.939 189.126 178.667C175.031 194.19 156.547 205.414 136.087 210.193C116.271 214.822 95.6661 211.779 76.4918 204.978C58.0667 198.444 42.3794 186.776 29.28 172.312C15.9759 157.621 4.12656 141.019 0.892561 121.5C-2.37569 101.774 3.84043 82.2238 11.2772 63.6536C19.0296 44.2954 27.2649 23.788 44.6617 12.2051C62.1716 0.546748 84.5073 -0.524516 105.521 0.905209Z" fill="#00FFF0"/>
</svg>
