<svg width="212" height="213" viewBox="0 0 212 213" fill="none" xmlns="http://www.w3.org/2000/svg">
<path fill-rule="evenodd" clip-rule="evenodd" d="M115.107 0.412298C134.967 0.286595 155.201 5.68888 170.74 17.9795C185.608 29.7387 191.127 48.7623 198.329 66.2363C205.25 83.0265 212.992 99.7224 211.895 117.834C210.743 136.853 203.04 154.643 192.03 170.241C180.141 187.084 166.491 204.893 146.548 210.413C126.673 215.914 104.942 209.345 86.9405 199.328C70.8919 190.399 65.8634 170.449 52.3806 158.016C36.4884 143.362 7.39843 140.926 1.21085 120.278C-4.83998 100.086 13.2156 80.8253 23.774 62.5558C33.4429 45.8255 43.9071 29.5807 59.9265 18.6809C76.254 7.57148 95.3189 0.537543 115.107 0.412298Z" fill="#FFE500"/>
</svg>
