<svg width="224" height="212" viewBox="0 0 224 212" fill="none" xmlns="http://www.w3.org/2000/svg">
<path fill-rule="evenodd" clip-rule="evenodd" d="M108.28 0.726065C121.325 1.85323 134.299 4.8061 145.852 10.9509C157 16.88 164.733 27.2159 174.063 35.7131C183.387 44.2053 193.451 51.6336 201.328 61.4767C210.103 72.4422 220.619 83.2751 223.168 97.0738C225.718 110.879 222.196 125.781 215.485 138.119C208.934 150.163 194.845 155.79 185.679 165.996C177.215 175.421 173.199 188.406 163.262 196.271C153.059 204.346 140.745 210.447 127.792 211.811C114.964 213.163 102.797 206.906 90.2388 203.965C78.0917 201.12 64.8387 201.318 54.3305 194.607C43.8401 187.908 37.8172 176.32 30.8374 166.029C24.066 156.045 18.5278 145.572 13.6062 134.563C8.22968 122.536 1.34825 110.839 0.296882 97.712C-0.79646 84.0612 1.03041 69.7161 7.44258 57.6074C13.8363 45.5335 26.3 38.2555 36.5654 29.2223C46.7191 20.2874 55.5202 9.23041 68.0989 4.23223C80.6965 -0.773507 94.7704 -0.441319 108.28 0.726065Z" fill="#FF5C00"/>
</svg>
