<svg width="244" height="220" viewBox="0 0 244 220" fill="none" xmlns="http://www.w3.org/2000/svg">
<path fill-rule="evenodd" clip-rule="evenodd" d="M120 28.343C142.992 28.343 148 -9.6571 172 2.34301C192.704 12.6953 213.086 47.1204 222.964 67.9427C232.959 89.0121 245.329 109.924 243.884 133.169C242.385 157.301 233.629 182.713 214.873 198.134C196.771 213.018 170.549 208.904 147.335 212.553C127.367 215.692 107.98 222.075 88.174 218.052C67.2754 213.807 47.4839 204.411 32.5924 189.246C17.1827 173.554 7.77785 153.201 3.39515 131.721C-1.16644 109.364 -2.22768 85.5839 7.19674 64.7806C16.6456 43.9236 31.7929 10.8574 54 4.84297C72.6697 -0.213422 70.3033 18.0285 91.5 25.843C97.5518 28.0741 110.117 28.343 120 28.343Z" fill="#00FF29"/>
</svg>
