<svg width="210" height="213" viewBox="0 0 210 213" fill="none" xmlns="http://www.w3.org/2000/svg">
<path fill-rule="evenodd" clip-rule="evenodd" d="M105.5 0.424015C127.294 0.913204 145.525 15.4044 162.368 29.1547C178.286 42.1491 191.206 57.7909 198.986 76.7437C207.277 96.9407 213.439 118.872 207.858 139.968C202.101 161.727 186.753 179.765 168.285 192.784C149.967 205.698 127.875 214.084 105.5 212.127C84.1277 210.258 67.7831 194.767 50.2627 182.463C32.4669 169.965 10.2691 160.422 2.87292 140.055C-4.59579 119.488 3.96439 97.1031 11.8525 76.6915C19.3656 57.2506 30.524 39.7607 46.7339 26.5592C63.7484 12.7024 83.5058 -0.0696727 105.5 0.424015Z" fill="#00FF29"/>
</svg>
