<svg width="244" height="212" viewBox="0 0 244 212" fill="none" xmlns="http://www.w3.org/2000/svg">
<path fill-rule="evenodd" clip-rule="evenodd" d="M118.567 8.4008C141.533 7.30267 165.451 -6.48914 185.986 3.77852C206.691 14.1308 213.086 39.7774 222.964 60.5997C232.959 81.6691 245.329 102.581 243.884 125.826C242.385 149.958 233.629 175.37 214.873 190.791C196.771 205.675 170.549 201.561 147.335 205.21C127.367 208.349 107.98 214.732 88.174 210.709C67.2754 206.464 47.4839 197.068 32.5924 181.903C17.1827 166.211 7.77785 145.858 3.39515 124.378C-1.16644 102.021 -2.22768 78.2409 7.19674 57.4377C16.6456 36.5806 34.1403 19.3036 55.1967 10.0324C74.9125 1.35148 97.0249 9.43089 118.567 8.4008Z" fill="#FFE500"/>
</svg>
