<svg width="224" height="213" viewBox="0 0 224 213" fill="none" xmlns="http://www.w3.org/2000/svg">
<path fill-rule="evenodd" clip-rule="evenodd" d="M117.368 10.3662C134.763 13.5802 151.117 17.5729 167.415 24.4332C186.955 32.6586 213.567 35.027 222.023 54.4196C230.503 73.8692 209.095 93.8024 206.857 114.892C204.486 137.224 219.946 161.473 208.601 180.874C197.173 200.419 172.525 211.29 149.858 212.372C128.459 213.394 112.707 193.576 92.5232 186.417C73.9218 179.82 52.1253 183.862 36.2985 172.095C18.8631 159.132 5.70308 139.943 1.4203 118.685C-2.96667 96.9093 3.38582 74.5896 12.5787 54.3583C21.7919 34.0823 33.2088 12.0773 53.787 3.43822C73.8419 -4.98111 95.9719 6.41281 117.368 10.3662Z" fill="#F26DF8"/>
</svg>
