<svg width="214" height="212" viewBox="0 0 214 212" fill="none" xmlns="http://www.w3.org/2000/svg">
<path fill-rule="evenodd" clip-rule="evenodd" d="M101.465 16.8405C117.164 20.6887 133.079 21.3646 147.459 28.7415C163.025 36.7274 176.981 47.017 187.508 60.982C200.029 77.5939 217.232 95.8713 213.475 116.324C209.705 136.85 183.147 143.329 169.483 159.114C155.799 174.923 152.582 200.533 133.388 208.845C113.998 217.242 92.1548 206.815 71.7145 201.453C50.6801 195.935 25.1269 194.919 12.5996 177.16C0.0831329 159.416 11.6193 135.043 9.62114 113.428C7.75785 93.2722 -3.77349 74.1285 1.26247 54.5221C6.70013 33.3518 17.7734 9.67124 38.2491 1.97122C58.9281 -5.80523 80.0058 11.5803 101.465 16.8405Z" fill="#4B3BFF"/>
</svg>
