<svg width="228" height="212" viewBox="0 0 228 212" fill="none" xmlns="http://www.w3.org/2000/svg">
<path fill-rule="evenodd" clip-rule="evenodd" d="M106.56 0.33346C129.5 -1.45228 152.883 3.91251 171.796 16.9516C190.98 30.1766 202.336 50.9827 211.193 72.4671C220.718 95.5704 234.721 121.64 224.329 144.371C213.984 166.997 183.037 168.979 161.394 181.393C142.793 192.062 127.997 210.732 106.56 211.921C84.6433 213.137 65.2493 200.013 47.0959 187.734C28.3699 175.067 6.02407 162.402 0.905136 140.454C-4.13919 118.827 13.1601 99.3715 21.7027 78.8608C29.4111 60.3529 33.5971 40.2058 48.3407 26.562C64.3313 11.7642 84.7893 2.0282 106.56 0.33346Z" fill="#F26DF8"/>
</svg>
