<svg width="216" height="213" viewBox="0 0 216 213" fill="none" xmlns="http://www.w3.org/2000/svg">
<path fill-rule="evenodd" clip-rule="evenodd" d="M105.521 0.838071C125.544 2.20042 144.863 8.54607 161.261 20.0711C177.207 31.2787 187.578 47.7998 196.75 64.9575C206.443 83.0911 217.256 101.756 215.881 122.253C214.462 143.412 203.408 162.872 189.126 178.6C175.031 194.123 156.547 205.347 136.087 210.126C116.271 214.755 95.6661 211.712 76.4918 204.911C58.0667 198.376 42.3794 186.709 29.28 172.244C15.9759 157.554 4.12656 140.952 0.892561 121.433C-2.37569 101.707 3.84043 82.1567 11.2772 63.5865C19.0296 44.2283 27.2649 23.7209 44.6617 12.1379C62.1716 0.479609 84.5073 -0.591655 105.521 0.838071Z" fill="#00FFF0"/>
</svg>
