<svg width="226" height="213" viewBox="0 0 226 213" fill="none" xmlns="http://www.w3.org/2000/svg">
<path fill-rule="evenodd" clip-rule="evenodd" d="M109.247 1.13622C122.408 2.26339 135.498 5.21626 147.154 11.3611C158.402 17.2901 166.204 27.6261 175.617 36.1233C185.025 44.6155 195.178 52.0437 203.125 61.8868C211.979 72.8524 222.589 83.6853 225.16 97.4839C227.733 111.289 224.18 126.191 217.409 138.529C210.799 150.573 196.584 156.2 187.337 166.406C178.798 175.831 174.746 188.816 164.72 196.681C154.426 204.756 142.001 210.857 128.933 212.222C115.991 213.573 103.714 207.316 91.0445 204.375C78.789 201.53 65.4176 201.728 54.8156 195.017C44.2315 188.318 38.1549 176.73 31.1128 166.439C24.2808 156.455 18.6932 145.982 13.7277 134.973C8.30316 122.946 1.36029 111.249 0.299533 98.1221C-0.803571 84.4713 1.03961 70.1263 7.50904 58.0175C13.9598 45.9437 26.5348 38.6656 36.8919 29.6324C47.1363 20.6976 56.0159 9.64057 68.7069 4.64238C81.417 -0.36335 95.6166 -0.0311627 109.247 1.13622Z" fill="#00FF29"/>
</svg>
