<svg width="220" height="213" viewBox="0 0 220 213" fill="none" xmlns="http://www.w3.org/2000/svg">
<path fill-rule="evenodd" clip-rule="evenodd" d="M101.292 0.191031C132.95 -0.890255 167.859 3.58991 189.946 20.6875C211.109 37.0694 206.316 63.0353 211.546 85.5382C215.901 104.274 223.77 122.494 217.909 140.997C211.691 160.627 198.743 179.114 177.886 191.804C156.328 204.921 128.984 212.975 101.292 211.952C74.321 210.956 48.8134 200.894 29.9733 186.34C12.9344 173.178 8.65733 154.355 3.48593 136.398C-1.15683 120.277 -0.519963 104.554 1.69297 88.1429C4.57395 66.7781 -0.212512 42.8966 18.2985 26.5501C38.261 8.922 70.5415 1.2413 101.292 0.191031Z" fill="#F26DF8"/>
</svg>
