<svg width="170" height="80" viewBox="0 0 170 80" fill="none" xmlns="http://www.w3.org/2000/svg">
<path d="M48.0394 74.1316C65.6057 73.197 79.0883 58.199 78.1537 40.6327C77.1999 22.7073 61.8728 11.0144 44.6798 11.9292C27.4618 12.8453 13.5879 26.1151 14.5404 44.0173C15.4751 61.5836 30.4731 75.0662 48.0394 74.1316Z" fill="#0500FF" fill-opacity="0.2" stroke="black" stroke-width="10"/>
<path d="M124.989 68.7205C107.534 70.907 91.6117 58.5296 89.4253 41.0748C87.2308 23.5561 99.0015 8.856 116.392 6.67763C133.378 4.54992 150.392 15.2557 152.635 33.157C154.821 50.6118 142.444 66.5341 124.989 68.7205Z" fill="#0500FF" fill-opacity="0.2" stroke="black" stroke-width="10"/>
<path d="M74.796 33.6287C77.1202 30.5173 83.6514 25.987 91.1821 32.7569" stroke="black" stroke-width="10" stroke-linejoin="round"/>
<circle cx="56.7422" cy="48.5035" r="13.2076" fill="black"/>
<circle cx="128.944" cy="44.1009" r="13.2076" fill="black"/>
</svg>
