<svg width="163" height="58" viewBox="0 0 163 58" fill="none" xmlns="http://www.w3.org/2000/svg">
<path d="M35.5647 52.7086C43.2218 52.7086 50.615 51.0753 56.2674 47.458C62.0981 43.7265 66.0312 37.8557 66.0312 30.1656C66.0312 14.7037 50.9551 5.45068 35.5173 5.45068C20.0532 5.45068 5.09814 14.7236 5.09814 30.1656C5.09814 37.8557 9.03121 43.7265 14.862 47.458C20.5143 51.0753 27.9075 52.7086 35.5647 52.7086Z" fill="#0500FF" fill-opacity="0.2" stroke="black" stroke-width="10"/>
<path d="M129.736 52.1895C122.152 52.6331 114.595 51.5569 108.581 48.4181C102.36 45.1718 97.7677 39.6466 97.0888 31.897C95.7611 16.7424 108.788 6.17885 124.525 5.25849C132.498 4.7922 140.322 6.74261 146.431 10.6571C152.571 14.5904 157.205 20.7016 157.875 28.3419C158.543 35.9714 155.24 41.9782 149.762 45.9686C144.489 49.809 137.319 51.7461 129.736 52.1895Z" fill="#0500FF" fill-opacity="0.2" stroke="black" stroke-width="10"/>
<path d="M66.2839 26.8124C70.8411 22.3442 83.2365 16.0888 96.3611 26.8124" stroke="black" stroke-width="10" stroke-linejoin="round"/>
<path d="M51.0405 30.8979C51.0405 39.1822 44.3248 38.7086 36.0405 38.7086C27.7563 38.7086 21.0405 39.1822 21.0405 30.8979C21.0405 22.6136 25.3139 20.7085 33.5981 20.7085C41.8824 20.7085 51.0405 22.6136 51.0405 30.8979Z" fill="black"/>
<path d="M142.041 30.8978C142.041 39.1821 135.325 37.7085 127.041 37.7085C118.756 37.7085 112.041 39.1821 112.041 30.8978C112.041 22.6136 118.756 20.2085 127.041 20.2085C135.325 20.2085 142.041 22.6136 142.041 30.8978Z" fill="black"/>
</svg>
