<svg width="170" height="80" viewBox="0 0 170 80" fill="none" xmlns="http://www.w3.org/2000/svg">
<circle cx="38.9424" cy="40.1895" r="15" fill="black"/>
<circle cx="129.942" cy="40.1895" r="15" fill="black"/>
<path d="M38.4665 65.2648C54.3009 65.2648 68.933 54.6073 68.933 39.4571C68.933 23.9952 53.857 14.7422 38.4192 14.7422C22.9551 14.7422 8 24.0151 8 39.4571C8 54.6073 22.6322 65.2648 38.4665 65.2648Z" fill="#0500FF" fill-opacity="0.2" stroke="black" stroke-width="10"/>
<path d="M132.638 65.1464C116.832 66.0708 101.313 56.2866 99.9906 41.1884C98.663 26.0339 111.69 15.4703 127.427 14.5499C135.4 14.0836 143.223 16.034 149.333 19.9485C155.472 23.8818 160.107 29.993 160.777 37.6334C162.099 52.7316 148.444 64.222 132.638 65.1464Z" fill="#0500FF" fill-opacity="0.2" stroke="black" stroke-width="10"/>
<path d="M69.1855 36.1039C73.7427 31.6357 86.1382 25.3803 99.2628 36.1039" stroke="black" stroke-width="10" stroke-linejoin="round"/>
</svg>
