<svg width="170" height="80" viewBox="0 0 170 80" fill="none" xmlns="http://www.w3.org/2000/svg">
<path d="M38.4665 64.0001C46.1237 64.0001 53.5168 62.3668 59.1692 58.7495C65 55.018 68.933 49.1472 68.933 41.4571C68.933 25.9952 53.857 16.7422 38.4192 16.7422C22.9551 16.7422 8 26.0151 8 41.4571C8 49.1472 11.9331 55.018 17.7638 58.7495C23.4162 62.3668 30.8094 64.0001 38.4665 64.0001Z" fill="#0500FF" fill-opacity="0.2" stroke="black" stroke-width="10"/>
<path d="M132.638 63.481C125.054 63.9246 117.497 62.8484 111.483 59.7096C105.262 56.4633 100.67 50.9381 99.9906 43.1885C98.663 28.034 111.69 17.4704 127.427 16.55C135.4 16.0837 143.223 18.0341 149.333 21.9486C155.472 25.8819 160.107 31.9931 160.777 39.6334C161.445 47.2629 158.142 53.2697 152.664 57.2601C147.391 61.1005 140.221 63.0376 132.638 63.481Z" fill="#0500FF" fill-opacity="0.2" stroke="black" stroke-width="10"/>
<path d="M69.1855 38.1039C73.7427 33.6357 86.1382 27.3803 99.2628 38.1039" stroke="black" stroke-width="10" stroke-linejoin="round"/>
<path d="M53.9424 42.1894C53.9424 50.4737 47.2267 50.0001 38.9424 50.0001C30.6581 50.0001 23.9424 50.4737 23.9424 42.1894C23.9424 33.9051 28.2157 32 36.5 32C44.7843 32 53.9424 33.9051 53.9424 42.1894Z" fill="black"/>
<path d="M144.942 42.1893C144.942 50.4736 138.227 49 129.942 49C121.658 49 114.942 50.4736 114.942 42.1893C114.942 33.9051 121.658 31.5 129.942 31.5C138.227 31.5 144.942 33.9051 144.942 42.1893Z" fill="black"/>
</svg>
