<svg width="170" height="80" viewBox="0 0 170 80" fill="none" xmlns="http://www.w3.org/2000/svg">
<circle cx="40" cy="40.332" r="15" fill="black"/>
<circle cx="128" cy="40.332" r="15" fill="black"/>
<path d="M72.2154 36.8923C72.2154 54.6249 57.8403 69 40.1077 69C22.3751 69 8 54.6249 8 36.8923C8 32.4493 8.89647 29.2387 10.2553 26.8652C11.603 24.5111 13.5796 22.675 16.2426 21.2382C21.7932 18.2437 29.989 17.1538 40.1077 17.1538C50.2263 17.1538 58.4222 18.2437 63.9727 21.2382C66.6358 22.675 68.6124 24.5111 69.9601 26.8652C71.3189 29.2387 72.2154 32.4493 72.2154 36.8923Z" fill="#0500FF" fill-opacity="0.2" stroke="black" stroke-width="10"/>
<path d="M95.3076 36.6171C96.5736 54.3044 111.938 67.6165 129.626 66.3505C147.313 65.0844 160.625 49.7196 159.359 32.0323C159.042 27.6007 157.918 24.4623 156.394 22.1918C154.881 19.94 152.779 18.2497 150.02 17.0067C144.27 14.4161 136.017 13.9142 125.924 14.6366C115.831 15.3591 107.734 17.0313 102.412 20.4145C99.8578 22.0377 98.0174 24.0103 96.8412 26.4546C95.6553 28.919 94.9904 32.1855 95.3076 36.6171Z" fill="#0500FF" fill-opacity="0.2" stroke="black" stroke-width="10"/>
<path d="M73.0923 31.7387C76.5282 27.6156 85.8738 21.8433 95.7692 31.7387" stroke="black" stroke-width="10" stroke-linejoin="round"/>
</svg>
