<svg width="170" height="80" viewBox="0 0 170 80" fill="none" xmlns="http://www.w3.org/2000/svg">
<path d="M74.0226 36.9675C74.0226 49.9525 63.4963 60.4788 50.5113 60.4788C37.5264 60.4788 27 49.9525 27 36.9675C27 33.7115 27.6559 31.4525 28.5798 29.8388C29.4925 28.2445 30.8396 26.9764 32.7248 25.9593C36.7197 23.804 42.7665 22.96 50.5113 22.96C58.2562 22.96 64.3029 23.804 68.2978 25.9593C70.1831 26.9764 71.5302 28.2445 72.4429 29.8388C73.3667 31.4525 74.0226 33.7115 74.0226 36.9675Z" fill="black" stroke="black" stroke-width="10"/>
<path d="M94.079 36.6733C95.0061 49.6251 106.257 59.3731 119.209 58.446C132.161 57.5189 141.909 46.2678 140.982 33.316C140.749 30.0683 139.934 27.8619 138.897 26.3183C137.873 24.7933 136.439 23.6245 134.485 22.7446C130.347 20.8801 124.255 20.4699 116.53 21.0229C108.805 21.5758 102.834 22.8494 99.0033 25.2844C97.1954 26.4336 95.9423 27.7946 95.1458 29.45C94.3395 31.1255 93.8465 33.4256 94.079 36.6733Z" fill="black" stroke="black" stroke-width="10"/>
<path d="M75.8545 33.0076C78.4944 29.8397 85.6751 25.4046 93.2781 33.0076" stroke="black" stroke-width="10" stroke-linejoin="round"/>
</svg>
