<svg width="127" height="52" viewBox="0 0 127 52" fill="none" xmlns="http://www.w3.org/2000/svg">
<path d="M52.1208 23.0632C52.1208 36.0482 41.5944 46.5745 28.6095 46.5745C15.6245 46.5745 5.09814 36.0482 5.09814 23.0632C5.09814 19.8072 5.75407 17.5482 6.67791 15.9345C7.59062 14.3402 8.9377 13.0721 10.823 12.055C14.8179 9.89972 20.8646 9.05566 28.6095 9.05566C36.3543 9.05566 42.4011 9.89972 46.396 12.055C48.2812 13.0721 49.6283 14.3402 50.541 15.9345C51.4649 17.5482 52.1208 19.8072 52.1208 23.0632Z" fill="black" stroke="black" stroke-width="10"/>
<path d="M72.1772 22.769C73.1043 35.7208 84.3553 45.4688 97.3071 44.5417C110.259 43.6146 120.007 32.3635 119.08 19.4117C118.847 16.164 118.032 13.9576 116.995 12.414C115.971 10.889 114.537 9.72025 112.584 8.84033C108.445 6.97579 102.353 6.56561 94.6284 7.11857C86.9033 7.67152 80.9323 8.94515 77.1014 11.3801C75.2936 12.5293 74.0405 13.8903 73.2439 15.5457C72.4377 17.2212 71.9447 19.5213 72.1772 22.769Z" fill="black" stroke="black" stroke-width="10"/>
<path d="M53.9529 19.1033C56.5928 15.9354 63.7734 11.5003 71.3765 19.1033" stroke="black" stroke-width="10" stroke-linejoin="round"/>
</svg>
