<svg width="170" height="80" viewBox="0 0 170 80" fill="none" xmlns="http://www.w3.org/2000/svg">
<path d="M75.1538 36.8C75.1538 40.6147 72.7001 44.7957 67.2061 48.2728C61.7748 51.7103 53.9643 54 45.0769 54C36.1896 54 28.3791 51.7103 22.9477 48.2728C17.4538 44.7957 15 40.6147 15 36.8C15 34.9162 15.5593 33.6699 16.4645 32.6692C17.4726 31.5548 19.1841 30.4577 21.8895 29.534C27.3928 27.6549 35.4388 27 45.0769 27C54.7151 27 62.7611 27.6549 68.2644 29.534C70.9698 30.4577 72.6812 31.5548 73.6893 32.6692C74.5946 33.6699 75.1538 34.9162 75.1538 36.8Z" fill="black" stroke="black" stroke-width="10"/>
<path d="M155.154 36.8C155.154 40.6147 152.7 44.7957 147.206 48.2728C141.775 51.7103 133.964 54 125.077 54C116.19 54 108.379 51.7103 102.948 48.2728C97.4538 44.7957 95 40.6147 95 36.8C95 34.9162 95.5593 33.6699 96.4645 32.6692C97.4726 31.5548 99.1841 30.4577 101.889 29.534C107.393 27.6549 115.439 27 125.077 27C134.715 27 142.761 27.6549 148.264 29.534C150.97 30.4577 152.681 31.5548 153.689 32.6692C154.595 33.6699 155.154 34.9162 155.154 36.8Z" fill="black" stroke="black" stroke-width="10"/>
<path d="M76.4614 35.5386H95.5383" stroke="black" stroke-width="10" stroke-linecap="round"/>
</svg>
