<svg width="170" height="80" viewBox="0 0 170 80" fill="none" xmlns="http://www.w3.org/2000/svg">
<path d="M85.7307 39.4379C89.9072 59.8959 108.332 72.7466 126.883 68.1408C145.434 63.5351 157.087 43.2169 152.911 22.7589C148.734 2.30089 114.103 11.6365 95.5516 16.2423C77.0004 20.8481 81.5542 18.9799 85.7307 39.4379Z" fill="black"/>
<path d="M82.5804 39.4938C79.4581 60.1793 61.7211 74.1569 42.9636 70.7138C24.2061 67.2707 11.5312 47.7106 14.6534 27.0252C17.7756 6.33975 52.8298 13.5038 71.5873 16.9469C90.3448 20.39 85.7026 18.8084 82.5804 39.4938Z" fill="black"/>
<path fill-rule="evenodd" clip-rule="evenodd" d="M50.4598 26.2061C50.9046 30.0748 48.1989 33.5799 44.4165 34.0348C43.2245 34.1782 41.7524 34.4494 40.3045 34.8558C39.1271 35.1862 38.1238 35.562 37.3542 35.9411C38.1895 38.9219 37.0186 42.2218 34.3025 43.9093C31.0475 45.9316 26.8059 44.8721 24.8287 41.5428C22.8754 38.2536 22.2197 34.3369 23.8234 30.5525C25.2211 27.254 27.8716 25.2156 29.9299 24.0063C34.0903 21.5619 39.4116 20.433 42.8058 20.0248C46.5882 19.5698 50.015 22.3373 50.4598 26.2061ZM36.1753 36.677C36.1753 36.677 36.1764 36.6757 36.1789 36.6732C36.1766 36.6758 36.1753 36.677 36.1753 36.677Z" fill="#645F5F"/>
<path fill-rule="evenodd" clip-rule="evenodd" d="M122.711 26.2061C123.156 30.0748 120.45 33.5799 116.667 34.0348C115.475 34.1782 114.003 34.4494 112.555 34.8558C111.378 35.1862 110.375 35.562 109.605 35.9411C110.44 38.9219 109.27 42.2218 106.554 43.9093C103.298 45.9316 99.0569 44.8721 97.0797 41.5428C95.1263 38.2536 94.4707 34.3369 96.0744 30.5525C97.4721 27.254 100.123 25.2156 102.181 24.0063C106.341 21.5619 111.663 20.433 115.057 20.0248C118.839 19.5698 122.266 22.3373 122.711 26.2061ZM108.426 36.677C108.426 36.677 108.427 36.6757 108.43 36.6732C108.428 36.6758 108.426 36.677 108.426 36.677Z" fill="#645F5F"/>
</svg>
