<svg width="180" height="160" viewBox="0 0 180 160" fill="none" xmlns="http://www.w3.org/2000/svg">
<path d="M85.2696 44.5C86.4243 42.5 89.311 42.5 90.4657 44.5L126.842 107.505C129.921 112.838 126.072 119.505 119.913 119.505H55.8218C49.6634 119.505 45.8145 112.838 48.8937 107.505L85.2696 44.5Z" fill="#FFD600"/>
<path d="M153.621 51.2334C155.764 49.8749 158.521 51.6253 158.203 54.1428L150.691 113.68C150.186 117.679 146.785 120.679 142.754 120.679H71.6219C63.6108 120.679 60.5727 110.21 67.339 105.922L153.621 51.2334Z" fill="#FFD600"/>
<path d="M25.3798 51.2334C23.2366 49.8749 20.4797 51.6253 20.7974 54.1428L28.3095 113.68C28.8141 117.679 32.2155 120.679 36.2465 120.679H107.378C115.39 120.679 118.428 110.21 111.661 105.922L25.3798 51.2334Z" fill="#FFD600"/>
</svg>
