<svg width="195" height="213" viewBox="0 0 195 213" fill="none" xmlns="http://www.w3.org/2000/svg">
<mask id="mask0_227_3205" style="mask-type:alpha" maskUnits="userSpaceOnUse" x="0" y="0" width="195" height="213">
<path fill-rule="evenodd" clip-rule="evenodd" d="M104.771 1.15395C125.613 -1.39185 148.252 3.08568 164.614 16.1168C180.482 28.754 185.305 50.0347 190.597 69.5045C195.19 86.4037 194.384 103.43 193.089 120.883C191.698 139.642 192.983 159.363 182.755 175.214C171.839 192.134 154.8 205.794 135.137 210.703C115.754 215.542 95.3119 209.768 77.1074 201.591C60.5067 194.136 48.9217 180.105 36.8669 166.567C24.7069 152.911 11.8291 139.725 6.5036 122.3C0.634865 103.097 -3.81001 81.254 5.31926 63.3431C14.3874 45.552 36.7032 40.3042 53.721 29.6627C70.5808 19.12 84.9806 3.57144 104.771 1.15395Z" fill="#FF7A00"/>
</mask>
<g mask="url(#mask0_227_3205)">
<path d="M107.194 0.643991C117.281 5.50564 135.206 19.126 128.456 30.8174" stroke="black" stroke-width="10" stroke-linecap="round"/>
<path d="M94.9697 -1.41939C103.655 5.64895 117.932 23.0547 108.655 32.8621" stroke="black" stroke-width="10" stroke-linecap="round"/>
<path d="M92.07 -2.49472C95.7651 8.07577 98.8086 30.3814 85.7686 33.8755" stroke="black" stroke-width="10" stroke-linecap="round"/>
</g>
</svg>
