<svg width="180" height="160" viewBox="0 0 180 160" fill="none" xmlns="http://www.w3.org/2000/svg">
<path d="M142 80.5C142 81.5367 141.461 83.1142 139.193 85.1371C136.928 87.1564 133.368 89.2036 128.54 91.0245C118.921 94.6528 105.296 97 90 97C74.7035 97 61.0786 94.6528 51.4595 91.0245C46.6319 89.2036 43.0715 87.1564 40.8072 85.1371C38.5388 83.1142 38 81.5367 38 80.5C38 79.4633 38.5388 77.8858 40.8072 75.8629C43.0715 73.8436 46.6319 71.7964 51.4595 69.9755C61.0786 66.3472 74.7035 64 90 64C105.296 64 118.921 66.3472 128.54 69.9755C133.368 71.7964 136.928 73.8436 139.193 75.8629C141.461 77.8858 142 79.4633 142 80.5Z" stroke="#FFD600" stroke-width="10"/>
</svg>
