<svg width="180" height="160" viewBox="0 0 180 160" fill="none" xmlns="http://www.w3.org/2000/svg">
<g clip-path="url(#clip0_315_3148)">
<path d="M83.4639 16.9673L136.058 82.4919C139.287 86.5153 137.203 92.5309 132.176 93.6935L61.1014 110.133C56.0749 111.295 51.5607 106.806 52.6954 101.773L71.1764 19.8093C72.4659 14.0901 79.7941 12.3951 83.4639 16.9673Z" fill="black" stroke="black" stroke-width="10"/>
<path d="M26.3826 115.976C24.9549 109.803 28.8014 103.642 34.9738 102.215L153.382 74.8278C159.554 73.4002 165.715 77.2466 167.143 83.4191V83.4191C171.426 101.936 159.886 120.42 141.369 124.703L67.6662 141.75C49.1488 146.032 30.6655 134.493 26.3826 115.976V115.976Z" fill="black"/>
</g>
<defs>
<clipPath id="clip0_315_3148">
<rect width="180" height="160" fill="white"/>
</clipPath>
</defs>
</svg>
