<svg width="180" height="160" viewBox="0 0 180 160" fill="none" xmlns="http://www.w3.org/2000/svg">
<path d="M129.88 90.6723C135.673 92.7411 139.496 96.6263 140.874 102.742C140.986 103.349 141.033 103.966 141.014 104.583C141.014 108.963 141.014 113.346 141.014 117.732C141.014 124.575 134.978 131.282 128.147 132.213C126.567 132.408 124.976 132.498 123.384 132.482H26.6813C23.3643 132.518 20.1224 131.495 17.426 129.563C14.7297 127.631 12.7194 124.89 11.6868 121.737C11.5213 121.249 11.4427 120.732 11 120.392V102.746C11.3434 101.749 11.6289 100.727 12.0385 99.7584C13.9832 95.1244 17.5001 92.2281 22.2004 90.6558C27.5337 89.9607 32.8959 90.3165 38.2458 90.2958C48.7593 90.2545 59.2729 90.2462 69.7823 90.3579C89.8163 90.5813 109.85 89.8159 129.88 90.6723Z" fill="black"/>
<path d="M169.804 85.7197C169.65 85.7228 169.504 85.7818 169.391 85.8853C169.278 85.9889 169.207 86.1301 169.191 86.2824C167.772 92.3728 164.023 96.2621 157.908 97.5034C152.264 98.6537 147.407 97.0317 143.584 92.5384C141.387 89.9524 140.547 86.9071 140.084 83.6716C139.947 82.7241 140.415 81.8593 140.394 80.9366C141.221 77.5769 142.624 74.511 145.359 72.2478C146.501 71.3086 147.759 70.5141 148.967 69.6535C150.72 68.9181 152.602 68.5397 154.503 68.5405C157.941 68.6481 161.359 69.3349 164.114 71.8506C166.733 74.2421 168.773 76.8943 169.303 80.5063C169.303 80.6222 169.63 80.6925 169.804 80.7836V85.7197Z" fill="black"/>
<path d="M148.975 69.6618C147.767 70.5224 146.492 71.3169 145.367 72.2561C142.624 74.5111 141.23 77.577 140.402 80.945L126.748 76.1247C127.811 81.0608 128.846 85.8686 129.88 90.6806C109.85 89.8241 89.8162 90.5896 69.7822 90.3703C59.2728 90.2586 48.7593 90.2669 38.2458 90.3082C32.8959 90.3082 27.5336 89.9731 22.2003 90.6682C23.2719 85.8066 24.3312 80.9408 25.4276 76.0875C26.491 71.3706 27.1695 66.5463 28.7832 61.9743C33.6489 48.1714 43.2646 39.3129 57.2702 35.3491C65.293 33.0817 73.4067 31.1164 81.4956 29.1014C92.6215 26.3334 102.568 28.7993 111.158 36.3131C123.306 46.9425 135.333 57.7126 147.415 68.4164C147.912 68.8467 148.454 69.2439 148.975 69.6618Z" fill="black"/>
</svg>
