<svg width="180" height="160" viewBox="0 0 180 160" fill="none" xmlns="http://www.w3.org/2000/svg">
<path d="M48.9672 136.359C42.6981 135.401 36.5597 133.727 30.6728 131.368C28.8818 130.631 27.1573 129.742 25.5183 128.711C23.6146 127.533 22.0558 125.873 21 123.9V121.178C23.2149 116.755 27.4406 115.03 31.6289 113.284C36.4092 111.291 41.4583 110.202 46.4733 109.014C46.4359 110.552 47.215 111.621 48.4262 112.461C50.1716 113.676 52.1688 114.342 54.1388 115.023C54.0809 115.424 53.7475 115.465 53.4583 115.55C51.2154 116.197 49.0183 116.992 46.8816 117.932C44.0645 119.164 41.3766 120.603 39.2399 122.896C38.3383 123.855 37.8329 125.119 37.8253 126.435C37.8177 127.751 38.3086 129.021 39.1991 129.99C41.1827 132.154 43.6221 133.61 46.2726 134.825C47.198 135.263 48.4058 135.267 48.9672 136.359Z" fill="black"/>
<path d="M51.9612 23.9797C54.9791 23.0134 58.0854 22.5609 61.2122 22.0744C72.4501 20.3154 83.7697 19.822 95.1369 20.0534C102.877 20.2065 110.59 20.6658 118.242 21.8124C124.091 22.6868 129.939 23.6394 135.387 26.1231C136.126 26.46 136.842 26.8465 137.53 27.2799C139.262 28.3925 140.065 29.8589 139.878 32.0432C139.265 39.2528 138.819 46.4725 138.316 53.6889C137.704 62.4851 137.096 71.279 136.492 80.0706C136.238 83.8177 135.989 87.5603 135.744 91.2983C132.996 92.5536 130.137 93.5491 127.204 94.272C117.235 96.6944 107.062 97.4259 96.8585 97.7526C90.3532 97.9601 83.8411 97.8955 77.3427 97.477C73.1544 97.2082 68.9729 96.8373 64.8084 96.2896C61.3176 95.8711 57.8711 95.1906 54.4177 94.5101L54.1285 94.2652C54.1285 92.9587 53.9856 91.6624 53.9073 90.3627C53.5977 85.0244 53.1724 79.693 52.8016 74.3717C52.5294 70.4726 52.247 66.5735 51.9986 62.6711C51.6584 57.3362 51.3182 51.9979 50.8895 46.6801C50.6207 43.2777 50.6003 39.8448 50.277 36.4458C50.141 35.0066 50.1648 33.5675 50.0015 32.1385C49.6612 29.2295 49.0692 26.266 51.934 24.1328C51.9612 24.0817 51.9612 24.0239 51.9612 23.9797Z" fill="black"/>
<path d="M48.9672 136.359C48.4058 135.26 47.1844 135.256 46.2453 134.835C43.5983 133.62 41.1418 132.164 39.1719 130C38.2813 129.031 37.7905 127.761 37.7981 126.445C37.8056 125.129 38.311 123.865 39.2127 122.906C41.3494 120.613 44.0372 119.163 46.8543 117.942C48.991 117.002 51.1882 116.207 53.4311 115.56C53.7339 115.475 54.0673 115.434 54.1115 115.033L55.7344 115.411C64.2675 117.792 73.0387 118.599 81.827 118.929C94.7933 119.412 107.749 119.085 120.539 116.547C124.468 115.764 128.408 114.914 131.933 112.828C133.359 111.981 134.444 110.913 134.529 109.13C140.681 110.423 146.778 111.94 152.456 114.7C154.654 115.764 156.787 116.965 158.42 118.861C160.615 121.402 160.516 124.07 158.165 126.455C155.219 129.442 151.469 131.014 147.618 132.378C139.013 135.44 130.079 136.968 121.053 138.077C109.079 139.511 97.0195 140.094 84.9639 139.819C73.2098 139.611 61.4863 138.55 49.8858 136.645C49.573 136.572 49.266 136.476 48.9672 136.359V136.359Z" fill="black"/>
<path d="M134.556 109.12C134.471 110.903 133.386 111.971 131.96 112.818C128.436 114.904 124.496 115.754 120.566 116.537C107.777 119.082 94.8206 119.409 81.8542 118.919C73.066 118.578 64.2948 117.775 55.7617 115.401C55.4419 114.305 55.5269 113.182 55.4759 112.063C55.4011 110.454 55.265 108.848 55.1663 107.238C54.9077 103.016 54.3429 98.7802 54.4178 94.5103C57.8712 95.1703 61.3177 95.8542 64.8085 96.3169C68.973 96.8647 73.1545 97.2355 77.3427 97.5043C83.8412 97.9228 90.3533 97.9875 96.8586 97.7799C107.066 97.4397 117.235 96.7218 127.204 94.2993C130.137 93.5765 132.996 92.5809 135.744 91.3257C135.349 97.2616 134.953 103.193 134.556 109.12Z" fill="black"/>
<path d="M51.9612 23.9797C51.9612 24.024 51.9612 24.092 51.9408 24.1124C49.076 26.2457 49.6782 29.2159 50.0083 32.1181C50.1716 33.5471 50.1478 34.9863 50.2839 36.4255C50.6241 39.8278 50.6241 43.254 50.8963 46.6597C51.3182 51.9912 51.6618 57.3295 52.0054 62.6507C52.2538 66.5532 52.5362 70.4523 52.8084 74.3514C53.1792 79.6862 53.6045 85.0177 53.9141 90.3423C53.9924 91.642 54.1251 92.9383 54.1353 94.2448C53.9572 94.2364 53.7799 94.2159 53.6045 94.1836C50.7492 93.4193 47.954 92.4459 45.2416 91.2712C44.6723 82.7041 44.1052 74.1381 43.5404 65.5733C42.9144 56.3326 42.277 47.0918 41.6283 37.8511C41.4786 35.6872 41.3187 33.5233 41.1146 31.3662C40.9683 29.859 41.5841 28.7498 42.7103 27.8346C44.7517 26.1845 47.1809 25.3509 49.6238 24.5513C50.3757 24.3268 51.1719 24.1771 51.9612 23.9797Z" fill="black"/>
<path d="M45.2349 91.2983C47.9473 92.4731 50.7425 93.4465 53.5978 94.2107C53.7732 94.2431 53.9505 94.2635 54.1286 94.272L54.4178 94.517C54.3293 98.7801 54.9077 103.002 55.1663 107.245C55.265 108.854 55.401 110.46 55.4759 112.07C55.5269 113.189 55.4419 114.312 55.7617 115.407L54.1388 115.03C52.1552 114.349 50.1717 113.669 48.4263 112.468C47.215 111.627 46.4359 110.559 46.4733 109.021C46.0605 103.115 45.6477 97.2071 45.2349 91.2983Z" fill="black"/>
</svg>
