<svg width="141" height="140" viewBox="0 0 141 140" fill="none" xmlns="http://www.w3.org/2000/svg">
<path d="M84.64 62.2901C75.13 62.2901 55.48 46.3801 54.29 45.4101C51.99 43.1001 47.11 37.1201 50.01 30.4901C50.63 29.0601 51.98 28.3401 54 28.3401C56.45 28.3401 59.62 29.4501 62.47 31.3101L87.96 51.0001C91.2 53.4501 90.1 57.9901 87.7 61.1901C87.04 61.9301 86.04 62.2901 84.64 62.2901V62.2901Z" fill="black"/>
<path d="M54.0005 29.8501C56.1605 29.8501 59.0005 30.8501 61.6005 32.5401L87.0605 52.2201C88.0805 52.9901 88.5405 54.0501 88.4605 55.4601C88.3805 56.9601 87.6805 58.7001 86.5305 60.2401C86.3605 60.4301 85.9005 60.7901 84.6405 60.7901C77.0405 60.7901 61.0105 48.9901 55.3105 44.3101C53.2105 42.1801 48.8805 36.8401 51.3905 31.1001C51.5505 30.7201 51.9405 29.8501 54.0005 29.8501V29.8501ZM54.0005 26.8501C51.5705 26.8501 49.5805 27.7601 48.6405 29.9001C45.9305 36.0901 49.0305 42.2801 53.2805 46.5401C53.2805 46.5401 74.2205 63.8001 84.6305 63.8001C86.3905 63.8001 87.8505 63.3101 88.8605 62.1501C91.8405 58.2101 92.8105 52.8101 88.8705 49.8301L63.3405 30.0901C60.3105 28.1001 56.8605 26.8501 54.0005 26.8501V26.8501Z" fill="black"/>
<path d="M103.19 95C93.8903 94.9 90.8903 74.73 90.5203 66.95C90.5105 66.7289 90.4516 66.5128 90.3478 66.3173C90.244 66.1219 90.098 65.952 89.9203 65.82C85.6303 62.59 80.8303 51.63 77.7703 42.44C77.6803 42.18 77.6203 42.05 77.6103 42.04C77.4203 41.7 77.1103 41.44 76.7303 41.32C69.8603 39.21 59.3803 30.67 55.1903 25.73C52.8803 23.01 51.4003 17.24 52.9503 13.9C53.7003 12.28 55.0403 11.5 57.0503 11.5C59.5903 11.5 63.0903 12.8 67.1803 15.27C68.3203 16.1 87.8603 30.36 92.9803 36.03C98.1903 41.8 104.62 54.66 104.68 54.79C112.93 72.21 111.72 87.9 111.31 91.46C107.89 93.1 104.04 94.82 103.19 95V95Z" fill="black"/>
<path d="M57.0601 13C58.6301 13 61.5201 13.61 66.3601 16.52C67.9301 17.66 86.9201 31.54 91.8801 37.03C96.8501 42.53 103.03 54.81 103.34 55.43C110.88 71.38 110.34 85.88 109.92 90.46C107.06 91.82 104.03 93.17 103.02 93.48C95.6801 93.08 92.4501 75.45 92.0301 66.87C91.9901 65.98 91.5501 65.15 90.8401 64.61C88.3301 62.72 83.7701 55.65 79.2101 41.96C79.1301 41.72 79.0701 41.55 78.9401 41.31C78.5701 40.62 77.9401 40.11 77.1901 39.88C74.1801 38.95 70.0901 36.59 65.6601 33.22C62.0101 30.44 58.3501 27.11 56.3501 24.75C54.1401 22.15 53.1401 17.08 54.3201 14.52C54.6701 13.77 55.2701 13 57.0601 13V13ZM57.0601 10C48.6101 10 49.9301 21.84 54.0601 26.7C58.0401 31.39 68.7601 40.43 76.3101 42.76C76.3501 42.83 82.5001 62.1 89.0301 67.02C89.0301 67.02 90.4301 96.5 103.27 96.5C104.39 96.5 112.71 92.46 112.71 92.46C112.71 92.46 115.71 74.54 106.04 54.13C106.04 54.13 99.5301 41.03 94.1101 35.03C88.6901 29.03 68.0201 14.03 68.0201 14.03C63.2701 11.15 59.6901 10 57.0601 10V10Z" fill="black"/>
<path d="M57.9801 128.08C55.7201 128.06 50.0001 124.83 49.2101 124.14C49.1701 124.1 49.0901 124.04 49.0501 124.01C48.9601 123.95 40.0001 117.54 35.4801 111.25C31.0401 105.06 29.6101 92.96 29.6001 92.84C29.0301 88.88 29.4601 83.86 34.6701 82.13C35.5001 81.85 36.3501 81.71 37.1801 81.71C41.1001 81.71 44.1801 84.7 45.7701 87.53C46.3701 89.04 52.5401 103.76 64.2901 103.76C66.2701 103.76 68.3101 103.33 70.3501 102.47C77.5401 99.46 80.3401 94.11 81.4201 90.14C83.2101 83.59 81.5001 76.47 78.9801 73.1C76.3201 69.53 71.7001 67.4 66.6401 67.4C64.6901 67.4 62.8201 67.72 61.2201 68.34C58.7901 69.28 56.6001 70.97 54.4801 72.6C52.4001 74.2 50.2501 75.86 47.8401 76.86C45.9401 77.65 44.1401 78.03 42.3301 78.03C39.3901 78.03 36.4901 77 33.4601 74.89C32.1201 73.96 31.4601 72.77 31.5001 71.36C31.5501 69.42 32.9401 67.3 35.0501 65.98C41.9701 61.15 52.4201 53.89 53.4101 53.28C56.7301 51.73 61.9701 50.46 65.1101 50.46C66.0801 50.46 66.6401 50.58 66.9301 50.67L88.4701 57.67C93.0501 59.2 99.9201 69.82 103.21 74.93L104.12 76.33C104.18 76.42 104.24 76.5 104.31 76.57C104.39 76.65 112.63 85.01 110.99 92.23C110.29 95.31 107.56 102.18 103.1 112.11C98.7601 121.77 88.7301 128.02 77.5601 128.03L57.9801 128.08V128.08Z" fill="black"/>
<path d="M65.1199 51.97C65.9899 51.97 66.3699 52.08 66.4899 52.11L87.9999 59.1C92.0899 60.46 99.0099 71.18 101.97 75.75C102.3 76.26 102.6 76.73 102.88 77.16C102.99 77.33 103.12 77.5 103.27 77.64C105.43 79.8 110.76 86.56 109.54 91.9C109.07 93.98 107.33 99.07 101.74 111.5C97.6399 120.62 88.1499 126.52 77.5599 126.54L57.9799 126.57C56.4099 126.56 51.3099 123.88 50.1799 122.99C50.0899 122.91 49.9999 122.83 49.8999 122.77C49.8099 122.71 41.0599 116.45 36.6799 110.35C32.4799 104.49 31.0899 92.76 31.0699 92.64C31.0699 92.61 31.0599 92.58 31.0599 92.55C30.3599 87.68 31.7299 84.64 35.1199 83.52C35.7999 83.29 36.4799 83.18 37.1599 83.18C40.3999 83.18 43.0099 85.72 44.3999 88.16C45.2499 90.25 51.7799 105.23 64.2799 105.23C66.4599 105.23 68.6999 104.76 70.9199 103.83C78.6699 100.59 81.6799 94.8 82.8499 90.52C84.7799 83.43 82.9599 75.93 80.1699 72.19C77.2299 68.25 72.1599 65.89 66.6299 65.89C64.4999 65.89 62.4399 66.25 60.6799 66.93C58.0399 67.95 55.7699 69.7 53.5599 71.4C51.4699 73.02 49.4899 74.54 47.2599 75.47C45.5499 76.18 43.9299 76.53 42.3299 76.53C39.7099 76.53 37.0899 75.59 34.3199 73.66C33.4099 73.02 32.9699 72.28 32.9999 71.39C33.0299 69.96 34.1799 68.29 35.8499 67.24C35.8899 67.21 35.9299 67.19 35.9699 67.16C42.3699 62.69 52.7699 55.46 54.1299 54.59C57.2499 53.17 62.2399 51.97 65.1199 51.97V51.97ZM65.1199 48.97C61.5099 48.97 56.0199 50.4 52.7299 51.95C52.3799 52.07 34.2499 64.72 34.2499 64.72C29.9399 67.43 28.1099 72.99 32.6099 76.13C35.9699 78.48 39.1799 79.54 42.3399 79.54C44.3799 79.54 46.3999 79.09 48.4199 78.26C53.5499 76.13 57.2499 71.49 61.7599 69.75C63.1599 69.21 64.8499 68.91 66.6299 68.91C70.6199 68.91 75.0699 70.39 77.7699 74C81.6699 79.22 83.7099 95.24 69.7599 101.08C67.8099 101.9 65.9799 102.25 64.2799 102.25C53.0399 102.25 47.1199 86.88 47.1199 86.88C45.1099 83.25 41.4499 80.2 37.1699 80.2C36.2099 80.2 35.2099 80.35 34.1899 80.69C28.6499 82.52 27.3399 87.67 28.0999 92.99C28.0999 92.99 29.5299 105.53 34.2499 112.11C38.9699 118.69 48.1699 125.22 48.1699 125.22C48.9299 125.95 55.1599 129.56 57.9599 129.58L77.5699 129.55C89.2999 129.53 99.8999 122.92 104.48 112.74C108.01 104.88 111.59 96.41 112.47 92.57C114.32 84.45 105.39 75.52 105.39 75.52C101.93 70.22 94.4799 58.1 88.9499 56.26L67.4199 49.26C66.8199 49.06 66.0299 48.97 65.1199 48.97V48.97Z" fill="black"/>
</svg>
