<svg width="140" height="140" viewBox="0 0 140 140" fill="none" xmlns="http://www.w3.org/2000/svg">
<path d="M18.0122 98.0824C24.4005 94.9398 30.8194 91.8792 37.269 88.9004C37.3252 91.168 37.6758 93.1617 38.3206 94.8816C40.1017 99.6318 43.2726 103.043 47.8332 105.117C52.3938 107.19 57.0493 107.336 61.7994 105.555L76.3802 100.158C81.0741 98.3513 84.4576 95.1677 86.5309 90.6071C88.6041 86.0464 88.7784 81.4038 87.0536 76.6792C86.5316 75.2869 85.7306 73.8357 84.6506 72.3257C95.0057 70.9185 104.378 72.1218 112.767 75.9356L117.957 77.0721C118.72 76.7395 119.268 76.2071 119.601 75.4752C119.933 74.7432 119.974 73.9806 119.724 73.1872L105.122 34.2438C104.789 33.4811 104.257 32.9334 103.525 32.6006C102.793 32.2679 102.03 32.2269 101.237 32.4777L97.9888 36.7081C95.3524 42.5074 91.3238 47.8946 85.9029 52.8697C80.4821 57.8448 73.6766 61.8678 65.4867 64.9386L46.8135 71.9401C43.5375 73.1685 39.0049 74.6578 33.2156 76.4081C27.4263 78.1585 22.4624 79.5876 18.3239 80.6956L12.1162 82.3576L18.0122 98.0824ZM77.3485 80.3182C78.0599 82.3401 77.9677 84.3363 77.0718 86.307C76.1759 88.2776 74.7452 89.6314 72.7796 90.3684L58.1605 95.8499C56.113 96.6176 54.1039 96.5535 52.1333 95.6577C50.1627 94.7618 48.8216 93.3029 48.1102 91.281C47.0968 88.5783 47.4885 86.0728 49.2853 83.7643C50.048 83.4317 50.6213 83.2167 51.0052 83.1195L69.6783 76.118C69.924 76.0258 70.2657 75.9094 70.7034 75.7687C71.141 75.6279 71.4417 75.5268 71.6055 75.4654C74.3952 76.0542 76.3095 77.6718 77.3485 80.3182Z" fill="black"/>
</svg>
