<svg width="108" height="75" viewBox="0 0 108 75" fill="none" xmlns="http://www.w3.org/2000/svg">
<path d="M6.11037 66.1312C12.4986 62.9887 18.9175 59.928 25.3672 56.9492C25.4234 59.2168 25.7739 61.2105 26.4188 62.9304C28.1999 67.6806 31.3707 71.0923 35.9314 73.1656C40.492 75.2388 45.1474 75.3849 49.8976 73.6038L64.4783 68.2069C69.1722 66.4002 72.5558 63.2165 74.629 58.6559C76.7023 54.0953 76.8765 49.4526 75.1517 44.728C74.6297 43.3357 73.8287 41.8846 72.7487 40.3745C83.1038 38.9673 92.476 40.1706 100.865 43.9844L106.056 45.121C106.818 44.7883 107.366 44.256 107.699 43.524C108.032 42.7921 108.072 42.0294 107.822 41.236L93.2199 2.29261C92.8872 1.52992 92.3549 0.982201 91.6229 0.649456C90.891 0.316711 90.1283 0.275729 89.3349 0.526508L86.0869 4.75694C83.4506 10.5563 79.422 15.9435 74.0011 20.9186C68.5802 25.8937 61.7748 29.9166 53.5848 32.9875L34.9116 39.989C31.6356 41.2173 27.103 42.7066 21.3137 44.457C15.5245 46.2073 10.5606 47.6365 6.42209 48.7445L0.214371 50.4065L6.11037 66.1312ZM65.4466 48.367C66.158 50.3889 66.0658 52.3852 65.1699 54.3558C64.2741 56.3264 62.8434 57.6803 60.8778 58.4173L46.2587 63.8987C44.2112 64.6664 42.2021 64.6023 40.2314 63.7065C38.2608 62.8106 36.9198 61.3518 36.2084 59.3299C35.195 56.6272 35.5867 54.1216 37.3834 51.8132C38.1461 51.4805 38.7194 51.2655 39.1033 51.1683L57.7765 44.1668C58.0222 44.0747 58.3639 43.9582 58.8015 43.8175C59.2392 43.6767 59.5399 43.5757 59.7037 43.5142C62.4933 44.103 64.4076 45.7206 65.4466 48.367Z" fill="black"/>
</svg>
