<svg width="116" height="45" viewBox="0 0 116 45" fill="none" xmlns="http://www.w3.org/2000/svg">
<path d="M21.0745 38.9362C29.7371 39.7519 39.0563 34.6408 39.9289 25.3743C40.8307 15.7962 32.1319 9.84469 23.8637 9.06616C15.5693 8.28516 5.983 12.535 5.08299 22.0933C4.21046 31.3597 12.4118 38.1206 21.0745 38.9362Z" fill="white" stroke="black" stroke-width="10"/>
<path d="M94.0094 36.9262C86.1749 36.6482 78.0832 30.9878 78.1392 22.3771C78.1955 13.7099 86.0894 9.0322 93.8545 9.3077C97.8417 9.44917 101.729 10.7841 104.731 13.1312C107.759 15.4997 110.09 19.1128 110.061 23.5097C110.005 32.1204 101.844 37.2042 94.0094 36.9262Z" fill="white" stroke="black" stroke-width="10"/>
<path d="M36.0508 13.227C43.8481 6.38154 64.1229 -2.32085 82.8438 17.633" stroke="black" stroke-width="10" stroke-linejoin="round"/>
</svg>
