<svg width="140" height="140" viewBox="0 0 140 140" fill="none" xmlns="http://www.w3.org/2000/svg">
<path d="M11.1618 128.829C13.2527 130.922 15.6511 132.235 18.357 132.769C21.0629 133.302 23.9533 132.912 27.0282 131.599C30.1031 130.286 33.0755 128.07 35.9454 124.951L63.4964 92.5696L67.1862 96.017C68.2522 97.002 69.5232 97.4944 70.9991 97.4944C72.475 97.4944 73.705 97.002 74.689 96.017C79.8548 91.3384 84.7951 86.5161 89.5099 81.5502C94.2247 76.5843 98.5091 71.7825 102.363 67.1449C106.217 62.5074 109.804 57.9313 113.125 53.4169C116.446 48.9024 119.336 44.6547 121.796 40.6738C124.256 36.6928 126.347 32.9171 128.069 29.3466C129.791 25.7761 131.062 22.6159 131.882 19.8662C132.702 17.1165 133.071 14.7567 132.989 12.7867C132.907 10.8168 132.353 9.35983 131.328 8.4159C130.303 7.47197 129.032 7 127.516 7C125.999 7 124.748 7.45145 123.764 8.35434L78.0098 50.5851L15.1592 104.02C12.0433 106.811 9.80885 109.745 8.4559 112.823C7.10295 115.901 6.69296 118.815 7.22594 121.565C7.75892 124.314 9.07088 126.736 11.1618 128.829Z" fill="black"/>
</svg>
