<svg width="141" height="141" viewBox="0 0 141 141" fill="none" xmlns="http://www.w3.org/2000/svg">
<path d="M65.8926 70.0725H81.4476V73.1847H65.8926V70.0725Z" fill="black"/>
<path d="M62.7832 63.8514C62.4744 63.8489 62.172 63.9387 61.9146 64.1093C61.6573 64.2798 61.4567 64.5233 61.3386 64.8086C61.2205 65.0938 61.1903 65.4079 61.2518 65.7104C61.3133 66.013 61.4638 66.2903 61.6839 66.5067C64.1742 68.9941 64.1742 74.2607 61.6839 76.751C61.4129 77.0466 61.2665 77.4354 61.2752 77.8363C61.284 78.2372 61.4471 78.6193 61.7306 78.9028C62.0142 79.1864 62.3963 79.3495 62.7972 79.3582C63.1981 79.367 63.5869 79.2206 63.8825 78.9496C67.5782 75.2568 67.5782 68.001 63.8825 64.3082C63.7384 64.1634 63.5671 64.0484 63.3784 63.97C63.1898 63.8917 62.9875 63.8513 62.7832 63.8514V63.8514Z" fill="black"/>
<path d="M87.3422 87.4522H62.0704C56.5504 87.4522 52.4598 84.5817 50.8447 79.5804L43.7568 60.1263L49.9871 57.854L57.1162 77.426C57.8678 79.7483 59.474 80.8182 62.0704 80.8182H87.3422V87.4522V87.4522Z" fill="black"/>
<path d="M120.695 51.3081L114.912 53.1029L111.063 40.6954L116.846 38.9006C117.676 38.6451 118.574 38.729 119.343 39.1339C120.112 39.5387 120.689 40.2316 120.948 41.0609L122.855 47.2027C123.111 48.0336 123.027 48.9318 122.622 49.7011C122.217 50.4704 121.524 51.0482 120.695 51.3081V51.3081Z" fill="black"/>
<path d="M21.9124 38.7095H27.1023V53.5159H21.9095C19.3454 53.5159 17.2471 51.4176 17.2471 48.8535V43.3719C17.2471 40.8078 19.3454 38.7095 21.9124 38.7095V38.7095Z" fill="black"/>
<path d="M36.6689 32.6471C36.6689 35.3673 38.8734 37.5718 41.5936 37.5718C44.3138 37.5718 49.6305 35.3673 49.6305 32.6471C49.6305 29.9269 44.3138 27.7224 41.5936 27.7224C38.8734 27.7224 36.6689 29.9269 36.6689 32.6471Z" fill="black"/>
<path d="M31.29 56.2683C31.29 59.7047 34.0751 62.4897 39.1265 62.4897H81.7776V56.2683H31.29Z" fill="black"/>
<path d="M120.913 104.829C120.913 104.829 115.092 86.6918 112.864 78.9879C110.636 71.2841 109.899 65.3898 116.038 60.8718C119.383 58.411 120.255 55.4373 119.586 52.3281C118.475 47.1647 115.802 40.3155 114.517 37.8134C113.96 36.7259 113.085 35.5794 111.355 35.0784C111.355 35.0784 99.817 29.9592 66.4405 29.9592C47.7763 29.9592 24.5469 32.7796 24.5469 39.5817V50.2267C24.5469 53.8517 27.4852 56.79 31.1102 56.79H71.4919C73.6345 56.79 75.5295 58.184 76.1691 60.2323L88.995 100.873V100.876C90.2594 105.008 86.2984 105.689 86.2984 109.09C86.3007 110.103 86.7042 111.074 87.4206 111.79C88.1369 112.507 89.1078 112.91 90.1208 112.913H114.974C115.951 112.912 116.913 112.682 117.784 112.241C118.656 111.8 119.411 111.16 119.989 110.373C120.567 109.586 120.952 108.674 121.112 107.711C121.273 106.748 121.204 105.76 120.913 104.829Z" fill="black"/>
</svg>
