<svg width="141" height="140" viewBox="0 0 141 140" fill="none" xmlns="http://www.w3.org/2000/svg">
<path d="M80.5155 18.0207C79.9824 10.3527 72.7081 4.42328 64.8678 6.37515L62.7273 6.91642C58.9302 7.86775 55.5596 10.6561 54.4278 14.8305C52.6236 21.5226 50.0566 35.4234 53.9193 51.8174C52.7116 51.6506 51.5003 51.5111 50.2863 51.3992C44.4389 50.8661 36.5986 50.8087 29.6523 53.1214C25.4041 54.5402 21.5004 58.7064 19.811 63.5614C18.302 67.9244 18.4988 73.0911 21.73 77.7739C21.2544 78.7498 20.8853 79.7586 20.5983 80.7509C19.9668 82.9652 19.6716 85.4009 19.6716 87.771C19.6716 90.1412 19.9668 92.5769 20.5983 94.7912C20.9181 95.8983 21.3364 97.0301 21.9105 98.1044C20.5245 101.278 21.0329 104.821 21.9351 107.519C22.8586 110.183 24.2104 112.679 25.9372 114.908C25.4943 116.155 25.3139 117.467 25.3139 118.722C25.3139 121.223 26.0438 123.848 27.3888 126.201C30.128 131.007 35.5653 134.927 43.2497 134.927H71.9536C76.9152 134.927 80.7287 134.263 83.9764 133.14C86.7689 132.12 89.4374 130.788 91.9314 129.17L92.3251 128.924C96.4584 126.406 100.518 123.93 109.285 123.003C115.567 122.33 121.16 117.262 121.16 110.324V77.5197C121.16 70.5487 115.542 65.7757 110.031 64.2749C103.069 62.3722 97.1227 57.8206 92.5465 52.7113C87.9539 47.5693 85.0507 42.2139 84.0256 39.2697C82.3936 34.5541 81.106 26.6483 80.5155 18.0289V18.0207Z" fill="black"/>
</svg>
