<svg width="104" height="129" viewBox="0 0 104 129" fill="none" xmlns="http://www.w3.org/2000/svg">
<path d="M62.4535 12.0207C61.9204 4.35268 54.6461 -1.57672 46.8058 0.375146L44.6653 0.916419C40.8682 1.86775 37.4976 4.65612 36.3658 8.83048C34.5616 15.5226 31.9946 29.4234 35.8573 45.8174C34.6496 45.6506 33.4383 45.5111 32.2243 45.3992C26.3769 44.8661 18.5366 44.8087 11.5903 47.1214C7.34212 48.5402 3.4384 52.7064 1.74897 57.5614C0.239969 61.9244 0.436798 67.0911 3.66803 71.7739C3.19237 72.7498 2.82331 73.7586 2.53627 74.7509C1.90479 76.9652 1.60955 79.4009 1.60955 81.771C1.60955 84.1412 1.90479 86.5769 2.53627 88.7912C2.85612 89.8983 3.27437 91.0301 3.84845 92.1044C2.46246 95.2782 2.97093 98.8211 3.87305 101.519C4.79662 104.183 6.1484 106.679 7.87519 108.908C7.43233 110.155 7.2519 111.467 7.2519 112.722C7.2519 115.223 7.9818 117.848 9.32678 120.201C12.066 125.007 17.5033 128.927 25.1877 128.927H53.8916C58.8532 128.927 62.6667 128.263 65.9144 127.14C68.7069 126.12 71.3754 124.788 73.8694 123.17L74.2631 122.924C78.3964 120.406 82.456 117.93 91.223 117.003C97.505 116.33 103.098 111.262 103.098 104.324V71.5197C103.098 64.5487 97.4804 59.7757 91.9693 58.2749C85.0065 56.3722 79.0607 51.8206 74.4845 46.7113C69.8919 41.5693 66.9887 36.2139 65.9636 33.2697C64.3316 28.5541 63.044 20.6483 62.4535 12.0289V12.0207Z" fill="black"/>
</svg>
