<svg width="140" height="183" viewBox="0 0 140 183" fill="none" xmlns="http://www.w3.org/2000/svg">
<path d="M111.683 94.306L129.203 83.086C129.62 82.8103 129.978 82.4557 130.257 82.0426C130.535 81.6296 130.729 81.166 130.828 80.6784C130.926 80.1909 130.926 79.6889 130.829 79.2011C130.732 78.7133 130.539 78.2494 130.261 77.8357L128.148 74.6864C127.87 74.2726 127.513 73.9172 127.097 73.6405C126.681 73.3638 126.214 73.1711 125.723 73.0736C125.232 72.976 124.727 72.9755 124.235 73.0719C123.744 73.1684 123.277 73.36 122.86 73.6359L96.6351 90.4351C84.7782 88.3576 73.529 88.1423 69.9023 88.1423C61.217 88.1423 8.90234 89.2189 8.90234 114.678V152.59C8.90234 159.752 15.4551 166.237 26.0586 171.012V146.902C26.0586 145.396 26.6611 143.951 27.7336 142.886C28.806 141.821 30.2606 141.223 31.7773 141.223C33.2941 141.223 34.7486 141.821 35.8211 142.886C36.8936 143.951 37.4961 145.396 37.4961 146.902V175.042C45.3713 177.197 54.4307 178.605 64.1836 179V154.485C64.1836 152.979 64.7861 151.535 65.8586 150.47C66.931 149.405 68.3856 148.806 69.9023 148.806C71.419 148.806 72.8736 149.405 73.9461 150.47C75.0186 151.535 75.6211 152.979 75.6211 154.485V179C85.3739 178.605 94.4334 177.197 102.309 175.042V146.902C102.309 145.396 102.911 143.951 103.984 142.886C105.056 141.821 106.511 141.223 108.027 141.223C109.544 141.223 110.999 141.821 112.071 142.886C113.144 143.951 113.746 145.396 113.746 146.902V171.012C124.35 166.237 130.902 159.752 130.902 152.59V114.678C130.902 104.428 122.381 98.1722 111.683 94.306ZM69.9023 129.842C42.5286 129.842 20.3398 123.054 20.3398 114.678C20.3398 106.302 42.5286 99.5161 69.9023 99.5161C73.9889 99.5161 77.9396 99.6841 81.7402 99.968L64.3909 111.089C63.9744 111.365 63.6167 111.719 63.3383 112.132C63.0598 112.546 62.866 113.009 62.768 113.497C62.67 113.984 62.6696 114.486 62.767 114.974C62.8643 115.462 63.0574 115.925 63.3353 116.339L65.4489 119.488C65.7265 119.902 66.0836 120.257 66.4996 120.534C66.9156 120.811 67.3824 121.003 67.8734 121.101C68.3644 121.199 68.87 121.199 69.3612 121.103C69.8524 121.006 70.3197 120.815 70.7363 120.539L99.006 102.433C111.385 105.178 119.465 109.636 119.465 114.678C119.465 123.054 97.2737 129.842 69.9023 129.842Z" fill="black"/>
</svg>
