<svg width="92" height="119" viewBox="0 0 92 119" fill="none" xmlns="http://www.w3.org/2000/svg">
<path d="M75.2721 37.7008C73.9386 37.7128 72.6109 37.8791 71.3155 38.1966V23.8205C71.306 21.2619 70.6811 18.7434 69.4939 16.4785C68.3067 14.2135 66.592 12.2689 64.4954 10.8095C62.3988 9.3501 59.9821 8.41896 57.4501 8.09503C54.918 7.7711 52.3454 8.06393 49.9503 8.94868C48.3879 5.71509 45.7766 3.10892 42.5439 1.55674C39.3113 0.00456522 35.6486 -0.401666 32.1556 0.404542C28.6625 1.21075 25.546 3.18164 23.3161 5.99461C21.0862 8.80758 19.875 12.296 19.8808 15.8889V16.3846C18.5854 16.0671 17.2577 15.9008 15.9242 15.8889C11.7309 15.9019 7.71305 17.5774 4.74791 20.5495C1.78276 23.5216 0.111188 27.5489 0.0981445 31.7521V73.3931C0.0981445 85.4888 4.89188 97.0891 13.4248 105.642C21.9577 114.195 33.5308 119 45.5981 119C57.6655 119 69.2386 114.195 77.7715 105.642C86.3044 97.0891 91.0981 85.4888 91.0981 73.3931V53.5641C91.0851 49.3609 89.4135 45.3336 86.4484 42.3615C83.4832 39.3894 79.4654 37.7139 75.2721 37.7008V37.7008ZM79.2286 73.3931C79.2286 82.3334 75.6854 90.9076 69.3785 97.2293C63.0715 103.551 54.5175 107.103 45.5981 107.103C36.6788 107.103 28.1248 103.551 21.8178 97.2293C15.5109 90.9076 11.9677 82.3334 11.9677 73.3931V31.7521C11.9677 30.7003 12.3846 29.6916 13.1265 28.9479C13.8685 28.2041 14.8749 27.7863 15.9242 27.7863C16.9736 27.7863 17.9799 28.2041 18.7219 28.9479C19.4639 29.6916 19.8808 30.7003 19.8808 31.7521V53.5641C19.8808 55.1418 20.506 56.6549 21.619 57.7705C22.732 58.8861 24.2415 59.5128 25.8155 59.5128C27.3895 59.5128 28.8991 58.8861 30.0121 57.7705C31.125 56.6549 31.7503 55.1418 31.7503 53.5641V15.8889C31.7503 14.8371 32.1672 13.8283 32.9092 13.0846C33.6511 12.3409 34.6575 11.923 35.7068 11.923C36.7562 11.923 37.7625 12.3409 38.5045 13.0846C39.2465 13.8283 39.6634 14.8371 39.6634 15.8889V49.5983C39.6634 51.176 40.2886 52.689 41.4016 53.8046C42.5146 54.9203 44.0241 55.547 45.5981 55.547C47.1721 55.547 48.6817 54.9203 49.7947 53.8046C50.9077 52.689 51.5329 51.176 51.5329 49.5983V23.8205C51.5329 22.7687 51.9498 21.76 52.6918 21.0162C53.4338 20.2725 54.4401 19.8547 55.4894 19.8547C56.5388 19.8547 57.5451 20.2725 58.2871 21.0162C59.0291 21.76 59.446 22.7687 59.446 23.8205V58.2239C53.8174 59.571 48.8051 62.778 45.2165 67.3283C41.6278 71.8786 39.6717 77.5073 39.6634 83.3077C39.6634 84.8854 40.2886 86.3985 41.4016 87.5141C42.5146 88.6297 44.0241 89.2564 45.5981 89.2564C47.1721 89.2564 48.6817 88.6297 49.7947 87.5141C50.9077 86.3985 51.5329 84.8854 51.5329 83.3077C51.546 79.6304 53.0091 76.1075 55.6033 73.5072C58.1974 70.907 61.7121 69.4404 65.3808 69.4273C66.9548 69.4273 68.4643 68.8006 69.5773 67.685C70.6903 66.5694 71.3155 65.0563 71.3155 63.4786V53.5641C71.3155 52.5123 71.7324 51.5036 72.4744 50.7598C73.2164 50.0161 74.2227 49.5983 75.2721 49.5983C76.3214 49.5983 77.3278 50.0161 78.0697 50.7598C78.8117 51.5036 79.2286 52.5123 79.2286 53.5641V73.3931Z" fill="black"/>
</svg>
