<svg width="127" height="126" viewBox="0 0 127 126" fill="none" xmlns="http://www.w3.org/2000/svg">
<path d="M4.25994 121.829C6.35087 123.922 8.74928 125.235 11.4552 125.769C14.1611 126.302 17.0515 125.912 20.1264 124.599C23.2012 123.286 26.1736 121.07 29.0435 117.951L56.5945 85.5696L60.2844 89.017C61.3503 90.002 62.6213 90.4944 64.0972 90.4944C65.5732 90.4944 66.8031 90.002 67.7871 89.017C72.9529 84.3384 77.8932 79.5161 82.6081 74.5502C87.3229 69.5843 91.6072 64.7825 95.4611 60.1449C99.3149 55.5074 102.902 50.9313 106.223 46.4169C109.544 41.9024 112.434 37.6547 114.894 33.6738C117.354 29.6928 119.445 25.9171 121.167 22.3466C122.889 18.7761 124.16 15.6159 124.98 12.8662C125.8 10.1165 126.169 7.75667 126.087 5.78672C126.005 3.81677 125.451 2.35983 124.427 1.4159C123.402 0.471966 122.131 0 120.614 0C119.097 0 117.846 0.451446 116.862 1.35434L71.108 43.5851L8.2573 97.0199C5.14141 99.8106 2.90699 102.745 1.55404 105.823C0.201092 108.901 -0.208893 111.815 0.324087 114.565C0.857068 117.314 2.16902 119.736 4.25994 121.829Z" fill="black"/>
</svg>
