<svg width="145" height="127" viewBox="0 0 145 127" fill="none" xmlns="http://www.w3.org/2000/svg">
<path d="M121.413 26.2532L142.093 12.9163C142.585 12.5885 143.007 12.1671 143.336 11.6761C143.665 11.185 143.894 10.634 144.01 10.0544C144.126 9.4749 144.127 8.87819 144.012 8.29839C143.897 7.71859 143.669 7.16705 143.342 6.67529L140.847 2.93183C140.519 2.44 140.098 2.01755 139.607 1.68861C139.116 1.35966 138.565 1.13067 137.985 1.01471C137.406 0.898749 136.809 0.898089 136.229 1.01277C135.649 1.12745 135.098 1.35522 134.606 1.68308L103.652 21.6519C89.6566 19.1826 76.3788 18.9266 72.0981 18.9266C61.8466 18.9266 0.0981445 20.2063 0.0981445 50.469V95.5339C0.0981445 104.047 7.83252 111.757 20.3481 117.432V88.7726C20.3481 86.9824 21.0593 85.2655 22.3252 83.9996C23.591 82.7338 25.3079 82.0226 27.0981 82.0226C28.8884 82.0226 30.6052 82.7338 31.8711 83.9996C33.137 85.2655 33.8481 86.9824 33.8481 88.7726V122.222C43.1435 124.784 53.8366 126.458 65.3481 126.927V97.7868C65.3481 95.9965 66.0593 94.2796 67.3252 93.0138C68.591 91.7479 70.3079 91.0367 72.0981 91.0367C73.8884 91.0367 75.6052 91.7479 76.8711 93.0138C78.137 94.2796 78.8481 95.9965 78.8481 97.7868V126.927C90.3597 126.458 101.053 124.784 110.348 122.222V88.7726C110.348 86.9824 111.059 85.2655 112.325 83.9996C113.591 82.7338 115.308 82.0226 117.098 82.0226C118.888 82.0226 120.605 82.7338 121.871 83.9996C123.137 85.2655 123.848 86.9824 123.848 88.7726V117.432C136.364 111.757 144.098 104.047 144.098 95.5339V50.469C144.098 38.2852 134.041 30.8489 121.413 26.2532ZM72.0981 68.4944C39.7881 68.4944 13.5981 60.4253 13.5981 50.469C13.5981 40.5127 39.7881 32.4464 72.0981 32.4464C76.9216 32.4464 81.5847 32.6461 86.0706 32.9836L65.5928 46.2024C65.1012 46.5304 64.679 46.952 64.3504 47.4431C64.0217 47.9342 63.793 48.4853 63.6773 49.0648C63.5616 49.6444 63.5612 50.241 63.6761 50.8207C63.791 51.4004 64.0189 51.9518 64.3469 52.4434L66.8416 56.1868C67.1693 56.6787 67.5908 57.1011 68.0818 57.4301C68.5728 57.759 69.1238 57.988 69.7034 58.104C70.2829 58.2199 70.8796 58.2206 71.4594 58.1059C72.0392 57.9912 72.5908 57.7634 73.0825 57.4356L106.45 35.9142C121.061 39.1767 130.598 44.4755 130.598 50.469C130.598 60.4253 104.405 68.4944 72.0981 68.4944Z" fill="black"/>
</svg>
