<svg width="86" height="120" viewBox="0 0 86 120" fill="none" xmlns="http://www.w3.org/2000/svg">
<path d="M56.8358 52.2901C47.3258 52.2901 27.6758 36.3801 26.4858 35.4101C24.1858 33.1001 19.3058 27.1201 22.2058 20.4901C22.8258 19.0601 24.1758 18.3401 26.1958 18.3401C28.6458 18.3401 31.8158 19.4501 34.6658 21.3101L60.1558 41.0001C63.3958 43.4501 62.2958 47.9901 59.8958 51.1901C59.2358 51.9301 58.2358 52.2901 56.8358 52.2901V52.2901Z" fill="black"/>
<path d="M26.1958 19.8501C28.3558 19.8501 31.1958 20.8501 33.7958 22.5401L59.2558 42.2201C60.2758 42.9901 60.7358 44.0501 60.6558 45.4601C60.5758 46.9601 59.8758 48.7001 58.7258 50.2401C58.5558 50.4301 58.0958 50.7901 56.8358 50.7901C49.2358 50.7901 33.2058 38.9901 27.5058 34.3101C25.4058 32.1801 21.0758 26.8401 23.5858 21.1001C23.7458 20.7201 24.1358 19.8501 26.1958 19.8501V19.8501ZM26.1958 16.8501C23.7658 16.8501 21.7758 17.7601 20.8358 19.9001C18.1258 26.0901 21.2258 32.2801 25.4758 36.5401C25.4758 36.5401 46.4158 53.8001 56.8258 53.8001C58.5858 53.8001 60.0458 53.3101 61.0558 52.1501C64.0358 48.2101 65.0058 42.8101 61.0658 39.8301L35.5358 20.0901C32.5058 18.1001 29.0558 16.8501 26.1958 16.8501V16.8501Z" fill="black"/>
<path d="M75.3857 85C66.0857 84.9 63.0857 64.73 62.7157 56.95C62.7058 56.7289 62.6469 56.5128 62.5431 56.3173C62.4393 56.1219 62.2933 55.952 62.1157 55.82C57.8257 52.59 53.0257 41.63 49.9657 32.44C49.8757 32.18 49.8157 32.05 49.8057 32.04C49.6157 31.7 49.3057 31.44 48.9257 31.32C42.0557 29.21 31.5757 20.67 27.3857 15.73C25.0757 13.01 23.5957 7.24 25.1457 3.9C25.8957 2.28 27.2357 1.5 29.2457 1.5C31.7857 1.5 35.2857 2.8 39.3757 5.27C40.5157 6.1 60.0557 20.36 65.1757 26.03C70.3857 31.8 76.8157 44.66 76.8757 44.79C85.1257 62.21 83.9157 77.9 83.5057 81.46C80.0857 83.1 76.2357 84.82 75.3857 85V85Z" fill="black"/>
<path d="M29.2554 3C30.8254 3 33.7154 3.61 38.5554 6.52C40.1254 7.66 59.1154 21.54 64.0754 27.03C69.0454 32.53 75.2254 44.81 75.5354 45.43C83.0754 61.38 82.5354 75.88 82.1154 80.46C79.2554 81.82 76.2254 83.17 75.2154 83.48C67.8754 83.08 64.6454 65.45 64.2254 56.87C64.1854 55.98 63.7454 55.15 63.0354 54.61C60.5254 52.72 55.9654 45.65 51.4054 31.96C51.3254 31.72 51.2654 31.55 51.1354 31.31C50.7654 30.62 50.1354 30.11 49.3854 29.88C46.3754 28.95 42.2854 26.59 37.8554 23.22C34.2054 20.44 30.5454 17.11 28.5454 14.75C26.3354 12.15 25.3354 7.08 26.5154 4.52C26.8654 3.77 27.4654 3 29.2554 3V3ZM29.2554 0C20.8054 0 22.1254 11.84 26.2554 16.7C30.2354 21.39 40.9554 30.43 48.5054 32.76C48.5454 32.83 54.6954 52.1 61.2254 57.02C61.2254 57.02 62.6254 86.5 75.4654 86.5C76.5854 86.5 84.9054 82.46 84.9054 82.46C84.9054 82.46 87.9054 64.54 78.2354 44.13C78.2354 44.13 71.7254 31.03 66.3054 25.03C60.8854 19.03 40.2154 4.03 40.2154 4.03C35.4654 1.15 31.8854 0 29.2554 0V0Z" fill="black"/>
<path d="M30.1759 118.08C27.9159 118.06 22.1959 114.83 21.4059 114.14C21.3659 114.1 21.2859 114.04 21.2459 114.01C21.1559 113.95 12.1959 107.54 7.67592 101.25C3.23592 95.06 1.80591 82.96 1.79591 82.84C1.22591 78.88 1.65591 73.86 6.86591 72.13C7.69591 71.85 8.54591 71.71 9.37591 71.71C13.2959 71.71 16.3759 74.7 17.9659 77.53C18.5659 79.04 24.7359 93.76 36.4859 93.76C38.4659 93.76 40.5059 93.33 42.5459 92.47C49.7359 89.46 52.5359 84.11 53.6159 80.14C55.4059 73.59 53.6959 66.47 51.1759 63.1C48.5159 59.53 43.8959 57.4 38.8359 57.4C36.8859 57.4 35.0159 57.72 33.4159 58.34C30.9859 59.28 28.7959 60.97 26.6759 62.6C24.5959 64.2 22.4459 65.86 20.0359 66.86C18.1359 67.65 16.3359 68.03 14.5259 68.03C11.5859 68.03 8.68591 67 5.65591 64.89C4.31591 63.96 3.65592 62.77 3.69592 61.36C3.74592 59.42 5.13592 57.3 7.24591 55.98C14.1659 51.15 24.6159 43.89 25.6059 43.28C28.9259 41.73 34.1659 40.46 37.3059 40.46C38.2759 40.46 38.8359 40.58 39.1259 40.67L60.6659 47.67C65.2459 49.2 72.1159 59.82 75.4059 64.93L76.3159 66.33C76.3759 66.42 76.4359 66.5 76.5059 66.57C76.5859 66.65 84.8259 75.01 83.1859 82.23C82.4859 85.31 79.7559 92.18 75.2959 102.11C70.9559 111.77 60.9259 118.02 49.7559 118.03L30.1759 118.08V118.08Z" fill="black"/>
<path d="M37.3157 41.97C38.1857 41.97 38.5657 42.08 38.6857 42.11L60.1957 49.1C64.2857 50.46 71.2057 61.18 74.1657 65.75C74.4957 66.26 74.7957 66.73 75.0757 67.16C75.1857 67.33 75.3157 67.5 75.4657 67.64C77.6257 69.8 82.9557 76.56 81.7357 81.9C81.2657 83.98 79.5257 89.07 73.9357 101.5C69.8357 110.62 60.3457 116.52 49.7557 116.54L30.1757 116.57C28.6057 116.56 23.5057 113.88 22.3757 112.99C22.2857 112.91 22.1957 112.83 22.0957 112.77C22.0057 112.71 13.2557 106.45 8.87568 100.35C4.67568 94.49 3.28568 82.76 3.26568 82.64C3.26568 82.61 3.25568 82.58 3.25568 82.55C2.55568 77.68 3.92568 74.64 7.31568 73.52C7.99568 73.29 8.67568 73.18 9.35568 73.18C12.5957 73.18 15.2057 75.72 16.5957 78.16C17.4457 80.25 23.9757 95.23 36.4757 95.23C38.6557 95.23 40.8957 94.76 43.1157 93.83C50.8657 90.59 53.8757 84.8 55.0457 80.52C56.9757 73.43 55.1557 65.93 52.3657 62.19C49.4257 58.25 44.3557 55.89 38.8257 55.89C36.6957 55.89 34.6357 56.25 32.8757 56.93C30.2357 57.95 27.9657 59.7 25.7557 61.4C23.6657 63.02 21.6857 64.54 19.4557 65.47C17.7457 66.18 16.1257 66.53 14.5257 66.53C11.9057 66.53 9.28568 65.59 6.51568 63.66C5.60568 63.02 5.16568 62.28 5.19568 61.39C5.22568 59.96 6.37568 58.29 8.04568 57.24C8.08568 57.21 8.12568 57.19 8.16568 57.16C14.5657 52.69 24.9657 45.46 26.3257 44.59C29.4457 43.17 34.4357 41.97 37.3157 41.97V41.97ZM37.3157 38.97C33.7057 38.97 28.2157 40.4 24.9257 41.95C24.5757 42.07 6.44568 54.72 6.44568 54.72C2.13568 57.43 0.305676 62.99 4.80568 66.13C8.16568 68.48 11.3757 69.54 14.5357 69.54C16.5757 69.54 18.5957 69.09 20.6157 68.26C25.7457 66.13 29.4457 61.49 33.9557 59.75C35.3557 59.21 37.0457 58.91 38.8257 58.91C42.8157 58.91 47.2657 60.39 49.9657 64C53.8657 69.22 55.9057 85.24 41.9557 91.08C40.0057 91.9 38.1757 92.25 36.4757 92.25C25.2357 92.25 19.3157 76.88 19.3157 76.88C17.3057 73.25 13.6457 70.2 9.36567 70.2C8.40567 70.2 7.40568 70.35 6.38568 70.69C0.845675 72.52 -0.464325 77.67 0.295675 82.99C0.295675 82.99 1.72568 95.53 6.44568 102.11C11.1657 108.69 20.3657 115.22 20.3657 115.22C21.1257 115.95 27.3557 119.56 30.1557 119.58L49.7657 119.55C61.4957 119.53 72.0957 112.92 76.6757 102.74C80.2057 94.88 83.7857 86.41 84.6657 82.57C86.5157 74.45 77.5857 65.52 77.5857 65.52C74.1257 60.22 66.6757 48.1 61.1457 46.26L39.6157 39.26C39.0157 39.06 38.2257 38.97 37.3157 38.97V38.97Z" fill="black"/>
</svg>
