<svg width="140" height="140" viewBox="0 0 140 140" fill="none" xmlns="http://www.w3.org/2000/svg">
<path d="M32.9763 130.009C41.639 130.825 50.9582 125.714 51.8307 116.447C52.7326 106.869 44.0337 100.917 35.7655 100.139C27.4712 99.3579 17.8849 103.608 16.9848 113.166C16.1123 122.432 24.3136 129.193 32.9763 130.009Z" stroke="black" stroke-width="10"/>
<path d="M105.911 127.999C98.0767 127.721 89.9851 122.061 90.0411 113.45C90.0974 104.783 97.9913 100.105 105.756 100.38C109.744 100.522 113.631 101.857 116.632 104.204C119.661 106.572 121.992 110.186 121.963 114.582C121.907 123.193 113.746 128.277 105.911 127.999Z" stroke="black" stroke-width="10"/>
<path d="M47.9532 104.3C55.7504 97.4543 76.0252 88.7519 94.7462 108.706" stroke="black" stroke-width="10" stroke-linejoin="round"/>
</svg>
