<svg width="86" height="70" viewBox="0 0 86 70" fill="none" xmlns="http://www.w3.org/2000/svg">
<path d="M39.5293 34.3281H52.1379V36.8508H39.5293V34.3281Z" fill="black"/>
<path d="M37.0087 29.2852C36.7584 29.2832 36.5133 29.356 36.3047 29.4942C36.0961 29.6325 35.9335 29.8298 35.8377 30.0611C35.742 30.2923 35.7175 30.5469 35.7674 30.7921C35.8173 31.0373 35.9392 31.2621 36.1176 31.4376C38.1363 33.4538 38.1363 37.7228 36.1176 39.7414C35.898 39.981 35.7793 40.2961 35.7864 40.6211C35.7935 40.946 35.9257 41.2557 36.1555 41.4856C36.3854 41.7154 36.6951 41.8477 37.02 41.8547C37.345 41.8618 37.6601 41.7431 37.8998 41.5235C40.8954 38.5302 40.8954 32.6488 37.8998 29.6555C37.783 29.5381 37.6441 29.4449 37.4912 29.3814C37.3383 29.3179 37.1743 29.2852 37.0087 29.2852V29.2852Z" fill="black"/>
<path d="M56.9152 48.4154H36.4305C31.9561 48.4154 28.6403 46.0887 27.3312 42.0347L21.5859 26.2657L26.636 24.4238L32.4148 40.2884C33.0239 42.1709 34.3259 43.0381 36.4305 43.0381H56.9152V48.4154V48.4154Z" fill="black"/>
<path d="M83.9504 19.1181L79.2634 20.5729L76.1436 10.5157L80.8306 9.06083C81.5037 8.85377 82.2315 8.92175 82.8547 9.24991C83.4779 9.57806 83.9457 10.1397 84.1559 10.8119L85.7015 15.7903C85.9086 16.4638 85.8407 17.1919 85.5126 17.8155C85.1845 18.4391 84.6228 18.9074 83.9504 19.1181V19.1181Z" fill="black"/>
<path d="M3.87976 8.90576H8.08659V20.9075H3.87737C1.79903 20.9075 0.0981445 19.2066 0.0981445 17.1283V12.685C0.0981445 10.6067 1.79903 8.90576 3.87976 8.90576V8.90576Z" fill="black"/>
<path d="M15.8408 3.99183C15.8408 6.19678 17.6277 7.98367 19.8327 7.98367C22.0376 7.98367 26.3472 6.19678 26.3472 3.99183C26.3472 1.78689 22.0376 0 19.8327 0C17.6277 0 15.8408 1.78689 15.8408 3.99183Z" fill="black"/>
<path d="M11.4814 23.1387C11.4814 25.9241 13.7389 28.1816 17.8335 28.1816H52.4055V23.1387H11.4814Z" fill="black"/>
<path d="M84.1275 62.5003C84.1275 62.5003 79.4095 47.7991 77.6035 41.5545C75.7975 35.31 75.2002 30.5322 80.1763 26.87C82.8877 24.8753 83.5948 22.4649 83.0525 19.9447C82.1519 15.7593 79.9852 10.2075 78.9436 8.17938C78.4921 7.29788 77.7826 6.3686 76.3803 5.96249C76.3803 5.96249 67.0278 1.81299 39.9737 1.81299C24.8448 1.81299 6.01562 4.09916 6.01562 9.61271V18.2414C6.01562 21.1797 8.39735 23.5614 11.3357 23.5614H44.0682C45.805 23.5614 47.341 24.6914 47.8594 26.3517L58.2558 59.2944V59.2968C59.2807 62.646 56.07 63.1979 56.07 65.9547C56.0719 66.7758 56.3989 67.5628 56.9796 68.1435C57.5602 68.7241 58.3472 69.0512 59.1684 69.053H79.3139C80.1054 69.0528 80.8858 68.8664 81.5919 68.5089C82.298 68.1513 82.9101 67.6326 83.3787 66.9947C83.8473 66.3568 84.1593 65.6176 84.2894 64.8368C84.4194 64.0561 84.364 63.2557 84.1275 62.5003Z" fill="black"/>
</svg>
