<svg width="85" height="60" viewBox="0 0 85 60" fill="none" xmlns="http://www.w3.org/2000/svg">
<path d="M67.1698 27.5775C66.017 25.7296 63.2154 21.8505 58.5087 19.7005C53.8602 17.5771 48.1463 17.4926 41.8028 20.9774C34.2427 17.3124 28.0991 17.1493 23.3709 19.816C18.5887 22.5131 16.8952 27.2543 16.3734 29.0967C15.4827 32.2415 17.2996 35.1689 19.9406 36.186C21.4604 36.7713 25.019 38.089 29.1022 39.2266C33.0472 40.3258 38.0446 41.4223 42.2354 41.2249C45.3901 41.0762 50.0407 40.05 53.9887 39.0613C58.0869 38.0351 61.9693 36.9065 63.8162 36.357C67.2922 35.3228 69.3908 31.1376 67.1698 27.5775Z" fill="black" stroke="#F26DF8" stroke-width="10" stroke-linecap="round" stroke-linejoin="round"/>
</svg>
