<svg width="126" height="60" viewBox="0 0 126 60" fill="none" xmlns="http://www.w3.org/2000/svg">
<path d="M38 10.686L49.3229 15.4446C53.9468 17.3878 54.3069 23.8014 49.9297 26.2501V26.2501C46.1675 28.3547 45.7712 33.6154 49.1756 36.2598L50.0373 36.9292C53.9204 39.9455 53.3743 45.9695 49.0122 48.2384L39.5 53.186" stroke="black" stroke-width="10" stroke-linecap="round" stroke-linejoin="round"/>
<path d="M81.6608 47.4252C79.5825 48.1711 77.2602 47.2069 76.3297 45.1884L76.1939 44.8989C69.6955 31.1257 65.4553 22.114 68.9172 14.5048C70.44 11.1734 73.5128 8.64873 77.1042 7.90155C83.8306 6.49751 89.6077 10.8547 91.4001 16.402C96.5945 13.7556 103.767 14.7519 107.513 20.5272C109.519 23.5984 109.9 27.557 108.615 30.9873C105.689 38.819 96.2929 42.169 81.9336 47.3287L81.6608 47.4252Z" fill="#FF0000"/>
</svg>
