<svg width="85" height="60" viewBox="0 0 85 60" fill="none" xmlns="http://www.w3.org/2000/svg">
<path d="M16.5458 32.7769C16.5026 32.8684 16.4667 32.9394 16.4386 32.9926C14.9605 34.4908 14.5684 36.7785 15.509 38.7003C16.5219 40.7698 18.8178 41.8792 21.0687 41.3868C23.8037 40.7884 26.4108 40.0917 28.8076 39.4512C29.6949 39.214 30.5535 38.9846 31.379 38.7707C34.5238 37.9559 37.3926 37.3077 40.3906 36.9969C46.2071 36.3938 53.0065 37.0095 63.1113 41.1319C65.0694 41.9307 67.3182 41.4112 68.7276 39.8347C70.137 38.2581 70.4022 35.9653 69.3898 34.1087C69.1113 33.5978 68.8154 33.0419 68.5053 32.4593C67.6339 30.8221 66.6504 28.9743 65.6247 27.3244C64.2075 25.0447 62.3733 22.5571 59.8744 20.7265C57.2246 18.7854 53.9667 17.6898 50.1244 18.0773C47.2629 18.3658 44.3212 19.4516 41.2575 21.2331C37.3027 19.3416 33.7078 18.4598 30.4115 18.7019C26.1063 19.0182 23.0921 21.1847 21.0763 23.7219C19.2125 26.0677 18.1242 28.8338 17.4276 30.6139C17.382 30.7304 17.3384 30.8419 17.2966 30.9489C16.9748 31.7727 16.7586 32.3262 16.5458 32.7769ZM16.3728 33.1099C16.3672 33.1189 16.3644 33.1231 16.3643 33.1229C16.3643 33.1228 16.3671 33.1183 16.3728 33.1099Z" fill="black" stroke="#F26DF8" stroke-width="10" stroke-linecap="round" stroke-linejoin="round"/>
</svg>
