<svg width="86" height="33" viewBox="0 0 86 33" fill="none" xmlns="http://www.w3.org/2000/svg">
<path d="M78.1613 12.7461C76.2978 10.2421 72.2902 7.55905 62.5679 6.08359L52.146 7.05141C49.6147 7.44815 46.7319 7.8139 43.7036 7.8139C38.5612 7.8139 34.0794 7.27153 30.3701 6.82262C30.0706 6.78638 29.7762 6.75075 29.4869 6.71606C25.4281 6.22947 22.7191 5.98914 20.4699 6.33797C10.0466 7.95455 7.22826 10.6599 6.20498 12.5673C5.60924 13.6777 5.27322 15.1237 5.15335 17.2618C5.07077 18.7347 5.09479 20.1634 5.12288 21.834C5.13873 22.7772 5.15589 23.7975 5.15589 24.9465C5.15589 26.0892 5.38802 26.4799 5.41962 26.5295C5.41965 26.5296 5.41973 26.5298 5.41984 26.53C5.4238 26.5385 5.47896 26.6565 5.89265 26.8137C7.09265 27.2697 9.46483 27.3824 13.5168 26.8404C16.1685 26.4856 18.9979 25.9428 22.0921 25.3492C23.5728 25.0651 25.1141 24.7694 26.7257 24.4771C31.5151 23.6084 36.7304 22.8138 41.7036 22.8138C46.6648 22.8138 52.0245 23.6056 57.0179 24.4701C58.5547 24.7362 60.0453 25.0067 61.492 25.2691C64.9119 25.8896 68.0868 26.4657 71.0478 26.8346C75.3917 27.3757 78.1591 27.294 79.6743 26.766C80.2674 26.5594 80.3913 26.3758 80.4063 26.3536L80.4073 26.3521L80.4075 26.3517C80.4276 26.3231 80.6559 25.9967 80.6559 24.9465C80.6559 19.0744 80.1531 15.4225 78.1613 12.7461Z" stroke="black" stroke-width="10"/>
</svg>
