<svg width="85" height="60" viewBox="0 0 85 60" fill="none" xmlns="http://www.w3.org/2000/svg">
<path d="M77.5689 26.9511C75.7609 24.5218 71.8571 21.8947 62.3297 20.4472L52.1118 21.3961C49.6251 21.7858 46.7899 22.1454 43.8115 22.1454C38.757 22.1454 34.3518 21.6123 30.7103 21.1716C30.4162 21.136 30.127 21.101 29.8428 21.0669C25.8558 20.5889 23.2086 20.355 21.0148 20.6953C10.7889 22.2812 8.05952 24.9307 7.07587 26.7642C6.49994 27.8378 6.17141 29.2423 6.05406 31.3353C5.97315 32.7783 5.99667 34.1758 6.02422 35.8133C6.03981 36.7398 6.05669 37.7431 6.05669 38.875C6.05669 39.9848 6.28212 40.3501 6.30136 40.3803C6.31393 40.4001 6.32425 40.4133 6.35586 40.4376C6.39476 40.4676 6.50036 40.5391 6.72135 40.6231C7.87603 41.0619 10.1844 41.1763 14.1623 40.6442C16.7631 40.2962 19.5369 39.7641 22.5732 39.1816C24.0275 38.9026 25.5419 38.612 27.1265 38.3246C31.8296 37.4715 36.9567 36.6902 41.848 36.6902C46.7273 36.6902 51.996 37.4687 56.899 38.3176C58.4096 38.5792 59.8741 38.8449 61.295 39.1027C64.6514 39.7117 67.7647 40.2765 70.6692 40.6384C74.9335 41.1696 77.6316 41.0862 79.0974 40.5754C79.3992 40.4703 79.5692 40.3714 79.6553 40.3108C79.733 40.2562 79.7593 40.2216 79.7723 40.2029L79.7726 40.2026C79.7822 40.1891 80 39.8852 80 38.875C80 33.1093 79.5047 29.5523 77.5689 26.9511Z" stroke="black" stroke-width="10"/>
</svg>
