<svg width="96" height="80" viewBox="0 0 96 80" fill="none" xmlns="http://www.w3.org/2000/svg">
<path d="M60.9176 31C52.412 31 49.2165 38.0298 48.5651 41.1963C48.5315 41.3595 48.5584 41.4794 48.7251 41.4794C51.752 41.4794 55.7593 42.5406 59.7241 44.2651C61.1552 44.8875 63.5387 46.5981 65.4794 47.4487C68.9152 48.9546 72.8395 49.9691 76.8621 49.9691C82.0262 49.9691 87.2861 44.7559 90.5917 40.7082C91.3018 39.8387 90.1392 38.6517 89.1539 39.1899C86.8394 40.4543 83.9995 41.6653 81.3383 41.8774C76.8876 42.2321 73.8144 39.925 71.4628 37.8171C71.4241 37.7824 71.3916 37.7486 71.3583 37.7087C70.8156 37.0578 65.6375 31 60.9176 31Z" fill="black" stroke="black" stroke-width="10" stroke-linecap="round"/>
<path d="M35.7714 31C44.4488 31 47.7122 38.0211 48.38 41.1903C48.4151 41.357 48.3882 41.4794 48.2179 41.4794C45.128 41.4794 41.0371 42.5406 36.9898 44.2651C35.5288 44.8875 33.0957 46.5981 31.1146 47.4487C27.6071 48.9546 23.6012 49.9691 19.4948 49.9691C14.2049 49.9691 8.81666 44.72 5.44439 40.6666C4.72663 39.8038 5.87321 38.6118 6.86128 39.144C9.23933 40.4248 12.1758 41.6627 14.9253 41.8774C19.4691 42.2321 22.6064 39.9246 25.0071 37.8165C25.0462 37.7822 25.079 37.7488 25.1127 37.7092C25.6644 37.061 30.9518 31 35.7714 31Z" fill="black" stroke="black" stroke-width="10" stroke-linecap="round"/>
</svg>
