<svg width="99" height="30" viewBox="0 0 99 30" fill="none" xmlns="http://www.w3.org/2000/svg">
<path d="M62.9371 5.29932C54.1542 5.29932 50.8544 12.5584 50.1819 15.8281C50.1472 15.9967 50.1749 16.1205 50.3471 16.1205C53.4727 16.1205 57.6107 17.2163 61.7047 18.997C63.1825 19.6397 65.6437 21.406 67.6477 22.2844C71.1956 23.8394 75.2478 24.8869 79.4015 24.8869C84.7961 24.8869 90.2917 19.3779 93.697 15.1789C94.4042 14.3069 93.2416 13.1224 92.2592 13.6657C89.84 15.0035 86.8352 16.3073 84.0237 16.5314C79.4267 16.8978 76.2529 14.5141 73.8243 12.337C73.7856 12.3023 73.7534 12.2689 73.7202 12.229C73.1697 11.5685 67.8164 5.29932 62.9371 5.29932Z" fill="black" stroke="black" stroke-width="10" stroke-linecap="round"/>
<path d="M36.9709 5.29932C45.9313 5.29932 49.3012 12.5493 49.9907 15.8219C50.0269 15.994 49.9992 16.1205 49.8233 16.1205C46.6326 16.1205 42.4084 17.2163 38.2291 18.997C36.7205 19.6397 34.208 21.406 32.1623 22.2844C28.5405 23.8394 24.4039 24.8869 20.1636 24.8869C14.6386 24.8869 9.0097 19.3417 5.53612 15.1377C4.82129 14.2725 5.96828 13.0827 6.95369 13.6198C9.43753 14.9736 12.5422 16.3047 15.4451 16.5314C20.1383 16.8978 23.3784 14.5137 25.8576 12.3364C25.8967 12.3021 25.9292 12.2691 25.9628 12.2295C26.5224 11.5717 31.9888 5.29932 36.9709 5.29932Z" fill="black" stroke="black" stroke-width="10" stroke-linecap="round"/>
</svg>
