<svg width="96" height="80" viewBox="0 0 96 80" fill="none" xmlns="http://www.w3.org/2000/svg">
<path d="M57.275 26.5523C49.1509 29.0711 48.1805 36.732 48.4961 39.9493C48.5123 40.1152 48.5735 40.2217 48.7327 40.1724C51.6238 39.276 55.7657 39.1029 60.0633 39.5759C61.6145 39.7466 64.3976 40.6746 66.5032 40.9123C70.2309 41.3332 74.2795 41.1401 78.1217 39.9488C83.0542 38.4195 86.5344 31.8825 88.493 27.0375C88.9138 25.9967 87.4518 25.2073 86.6701 26.0131C84.8339 27.9062 82.4799 29.9038 80.0009 30.8945C75.8549 32.5513 72.2364 31.2578 69.366 29.9408C69.3188 29.9192 69.2777 29.8965 69.2341 29.8682C68.5229 29.4073 61.7832 25.1546 57.275 26.5523Z" fill="black" stroke="black" stroke-width="10" stroke-linecap="round"/>
<path d="M33.2567 33.999C41.5449 31.4294 46.7411 37.1691 48.3175 39.9984C48.4003 40.1472 48.4109 40.2721 48.2483 40.3225C45.2969 41.2376 41.7038 43.4626 38.3487 46.3083C37.1376 47.3355 35.3202 49.6899 33.6798 51.089C30.7757 53.5661 27.2498 55.7213 23.3276 56.9374C18.275 58.5039 11.574 55.0859 7.15261 52.2129C6.21156 51.6015 6.95373 50.1234 8.05507 50.3391C10.7058 50.8583 13.8771 51.171 16.5668 50.5618C21.0119 49.5551 23.3252 46.422 24.9939 43.6975C25.021 43.6532 25.0425 43.6116 25.0629 43.5638C25.3979 42.7813 28.6533 35.4263 33.2567 33.999Z" fill="black" stroke="black" stroke-width="10" stroke-linecap="round"/>
</svg>
